<svg width="281" height="37" viewBox="0 0 281 37" fill="none" xmlns="http://www.w3.org/2000/svg">
<path d="M12.8054 11.8686C13.739 11.8686 14.6839 12.0166 15.6402 12.3126C16.5965 12.5858 17.4731 12.9273 18.27 13.3372C19.067 13.747 19.7159 14.2024 20.2168 14.7033C20.7177 15.1815 20.9682 15.6255 20.9682 16.0353C20.9682 16.263 20.8771 16.5021 20.695 16.7526C20.5356 17.003 20.3193 17.2649 20.046 17.5381C19.7728 17.8113 19.4654 18.0959 19.1239 18.3919C18.8051 18.6652 18.4863 18.9384 18.1676 19.2116C17.8033 19.5304 17.4276 19.8719 17.0405 20.2362C16.6534 20.5778 16.2777 20.9079 15.9134 21.2267C15.5719 21.5227 15.2645 21.7732 14.9913 21.9781C14.718 22.1602 14.5131 22.2513 14.3765 22.2513C14.1716 22.2513 14.0236 22.183 13.9325 22.0464C13.8642 21.887 13.7845 21.6821 13.6934 21.4316C13.6251 21.1812 13.5227 20.8852 13.386 20.5436C13.2722 20.1793 13.0673 19.7922 12.7713 19.3824C12.0654 18.3806 11.2002 17.5153 10.1756 16.7867C9.15096 16.0353 8.08081 15.6596 6.96512 15.6596C5.96327 15.6596 5.2005 16.0012 4.67681 16.6842C4.17588 17.3446 3.92542 18.187 3.92542 19.2116C3.92542 20.6006 4.38081 21.9781 5.29158 23.3442C6.20235 24.7104 7.32942 25.9286 8.67281 26.9987C10.039 28.0689 11.4848 28.9455 13.0103 29.6286C14.5587 30.2889 15.959 30.619 17.2113 30.619C18.031 30.619 18.6913 30.5279 19.1922 30.3458C19.6931 30.1636 20.0916 29.9587 20.3876 29.731C20.7063 29.5033 20.9568 29.2984 21.139 29.1162C21.3211 28.9341 21.4919 28.843 21.6513 28.843C21.7651 28.843 21.879 28.8886 21.9928 28.9796C22.1294 29.0707 22.1977 29.2642 22.1977 29.5602C22.1977 30.1978 22.0042 30.9378 21.6171 31.7802C21.2528 32.6227 20.6836 33.4196 19.9094 34.171C19.158 34.8996 18.179 35.5258 16.9722 36.0495C15.7882 36.5504 14.3765 36.8009 12.7371 36.8009C11.0977 36.8009 9.52665 36.5049 8.02388 35.9129C6.52111 35.2981 5.18912 34.467 4.02788 33.4196C2.86665 32.3495 1.94451 31.0972 1.26143 29.6627C0.578355 28.2282 0.236816 26.6686 0.236816 24.9836C0.236816 23.2076 0.487278 21.5227 0.988202 19.9289C1.51189 18.335 2.28605 16.9461 3.31065 15.7621C4.35804 14.5553 5.66727 13.6104 7.23835 12.9273C8.80942 12.2215 10.6651 11.8686 12.8054 11.8686ZM23.2386 36.2886C23.694 35.8332 24.0014 35.2981 24.1608 34.6833C24.3429 34.0458 24.434 33.2375 24.434 32.2584V16.411C24.434 15.4319 24.3429 14.635 24.1608 14.0202C24.0014 13.3827 23.694 12.8362 23.2386 12.3809H31.6063C32.3349 12.3809 32.8245 12.6427 33.0749 13.1664C33.3482 13.6673 33.4848 14.3504 33.4848 15.2156V15.7962C33.4848 16.2061 33.5075 16.4452 33.5531 16.5135C33.5986 16.5818 33.6555 16.6159 33.7238 16.6159C34.0198 16.6159 34.3158 16.3769 34.6118 15.8987C34.9306 15.3978 35.3405 14.8513 35.8414 14.2593C36.3651 13.6446 37.0368 13.0981 37.8565 12.6199C38.6762 12.119 39.7577 11.8686 41.1011 11.8686C41.5565 11.8686 42.0346 11.9141 42.5355 12.0052C43.0365 12.0962 43.4918 12.2329 43.9017 12.415C44.3343 12.5744 44.6872 12.7793 44.9605 13.0298C45.2337 13.2802 45.3703 13.5762 45.3703 13.9178C45.3703 14.0089 45.3134 14.191 45.1995 14.4642C45.0857 14.7147 44.9377 15.0221 44.7555 15.3864C44.5962 15.7279 44.4026 16.115 44.1749 16.5476C43.9472 16.9575 43.7309 17.3787 43.526 17.8113C43.2983 18.2895 43.0706 18.7562 42.8429 19.2116C42.638 19.6442 42.4331 20.0313 42.2282 20.3729C42.0232 20.7144 41.8297 20.9876 41.6475 21.1926C41.4882 21.3975 41.3288 21.4999 41.1694 21.4999C40.8051 21.4999 40.5205 21.3406 40.3155 21.0218C40.1334 20.703 39.9171 20.3615 39.6666 19.9972C39.4162 19.6101 39.0746 19.2686 38.642 18.9726C38.2094 18.6538 37.5832 18.4944 36.7635 18.4944C36.0577 18.4944 35.4885 18.6424 35.0558 18.9384C34.6232 19.2116 34.2817 19.5759 34.0312 20.0313C33.8035 20.4639 33.6555 20.9421 33.5872 21.4658C33.5189 21.9895 33.4848 22.4904 33.4848 22.9686V32.2584C33.4848 33.2375 33.5645 34.0458 33.7238 34.6833C33.906 35.2981 34.2248 35.8332 34.6802 36.2886H23.2386ZM56.2576 11.8686C57.7831 11.8686 59.1379 12.1304 60.3219 12.6541C61.5059 13.155 62.4963 13.8267 63.2933 14.6692C64.1129 15.5116 64.7277 16.4793 65.1376 17.5722C65.5702 18.6652 65.7865 19.8036 65.7865 20.9876C65.7865 21.9212 65.5929 22.6839 65.2059 23.2759C64.8188 23.8679 64.2951 24.3233 63.6348 24.6421C62.9745 24.9609 62.2003 25.1772 61.3123 25.291C60.4243 25.4049 59.4794 25.4618 58.4776 25.4618C57.4985 25.4618 56.4739 25.439 55.4037 25.3935C54.3563 25.3479 53.3317 25.3252 52.3299 25.3252C52.1477 25.3252 51.9656 25.3479 51.7834 25.3935C51.624 25.4162 51.5443 25.5756 51.5443 25.8716C51.5443 26.1676 51.8517 26.5889 52.4665 27.1353C53.0813 27.659 53.8554 28.1827 54.7889 28.7064C55.7225 29.2301 56.7357 29.6855 57.8286 30.0726C58.9443 30.4369 59.9917 30.619 60.9708 30.619C61.7905 30.619 62.4508 30.5279 62.9517 30.3458C63.4526 30.1636 63.8511 29.9587 64.1471 29.731C64.4659 29.5033 64.7163 29.2984 64.8985 29.1162C65.0806 28.9341 65.2514 28.843 65.4108 28.843C65.5246 28.843 65.6385 28.8886 65.7523 28.9796C65.8889 29.0707 65.9573 29.2642 65.9573 29.5602C65.9573 30.1978 65.7637 30.9378 65.3766 31.7802C65.0123 32.6227 64.4431 33.4196 63.6689 34.171C62.9176 34.8996 61.9385 35.5258 60.7317 36.0495C59.5477 36.5504 58.136 36.8009 56.4966 36.8009C54.8573 36.8009 53.2862 36.5049 51.7834 35.9129C50.2806 35.2981 48.9486 34.467 47.7874 33.4196C46.6262 32.3495 45.704 31.0972 45.0209 29.6627C44.3379 28.2282 43.9963 26.6686 43.9963 24.9836C43.9963 23.1166 44.2582 21.3861 44.7819 19.7922C45.3056 18.1756 46.0797 16.7867 47.1043 15.6255C48.1517 14.4415 49.4382 13.5193 50.9637 12.859C52.4893 12.1987 54.2539 11.8686 56.2576 11.8686ZM47.8216 18.7335C47.8216 19.3482 47.8899 19.9516 48.0265 20.5436C48.1859 21.1356 48.4136 21.6707 48.7096 22.1489C49.0283 22.6042 49.4382 22.9799 49.9391 23.2759C50.44 23.5492 51.032 23.6858 51.7151 23.6858C52.512 23.6858 53.3203 23.663 54.14 23.6175C54.9825 23.5492 55.7339 23.4353 56.3942 23.2759C57.0773 23.0938 57.6351 22.8319 58.0677 22.4904C58.5003 22.1489 58.7166 21.6935 58.7166 21.1242C58.7166 20.2362 58.4889 19.4507 58.0336 18.7676C57.5782 18.0846 56.9976 17.5039 56.2917 17.0258C55.6086 16.5476 54.8573 16.1947 54.0376 15.967C53.2406 15.7166 52.4779 15.5913 51.7493 15.5913C51.2711 15.5913 50.7929 15.671 50.3148 15.8304C49.8594 15.967 49.4382 16.1719 49.0511 16.4452C48.6868 16.7184 48.3908 17.0486 48.1631 17.4356C47.9354 17.8227 47.8216 18.2553 47.8216 18.7335ZM80.4207 18.6993C80.9216 18.5855 81.2518 18.3919 81.4112 18.1187C81.5705 17.8227 81.6502 17.5153 81.6502 17.1966C81.6502 16.8095 81.6161 16.4224 81.5478 16.0353C81.4795 15.6255 81.3315 15.2498 81.1038 14.9082C80.8988 14.5667 80.6029 14.2935 80.2158 14.0886C79.8287 13.8609 79.3164 13.747 78.6788 13.747C77.6087 13.7698 76.6524 14.1455 75.8099 14.8741C74.9675 15.6027 74.2047 16.411 73.5216 17.299C72.8613 18.1642 72.2465 18.9612 71.6773 19.6898C71.1081 20.4184 70.5616 20.7827 70.0379 20.7827C69.7647 20.7827 69.5142 20.6802 69.2865 20.4753C69.0816 20.2476 68.9792 19.9858 68.9792 19.6898V17.8113C68.9792 17.2193 68.9792 16.6387 68.9792 16.0695C68.9792 15.5002 69.2068 15.0107 69.6622 14.6009C70.8462 13.5079 72.2693 12.7793 73.9315 12.415C75.6164 12.0507 77.3696 11.8686 79.1912 11.8686C81.1493 11.8686 82.8456 12.1759 84.2801 12.7907C85.7373 13.4055 86.9441 14.2024 87.9004 15.1815C88.8567 16.1378 89.5625 17.2307 90.0179 18.4602C90.4961 19.667 90.7352 20.8852 90.7352 22.1147V32.2584C90.7352 33.2375 90.8148 34.0458 90.9742 34.6833C91.1564 35.2981 91.4752 35.8332 91.9305 36.2886H83.5629C82.6065 36.2886 82.0145 35.799 81.7868 34.8199C81.7185 34.5239 81.6161 34.2507 81.4795 34.0002C81.3428 33.7498 81.1493 33.6246 80.8988 33.6246C80.5345 33.6246 80.1816 33.7953 79.8401 34.1369C79.4985 34.4556 79.0659 34.8199 78.5422 35.2298C78.0185 35.6169 77.3696 35.9698 76.5955 36.2886C75.8213 36.6301 74.8195 36.8009 73.5899 36.8009C72.7702 36.8009 71.9847 36.6529 71.2333 36.3569C70.5047 36.0609 69.8558 35.651 69.2865 35.1273C68.7401 34.5809 68.3075 33.9547 67.9887 33.2489C67.6699 32.543 67.5105 31.7802 67.5105 30.9606C67.5105 29.139 67.8749 27.5452 68.6035 26.179C69.3549 24.7901 70.3339 23.6061 71.5407 22.627C72.7702 21.6252 74.1592 20.8055 75.7075 20.1679C77.2558 19.5304 78.8269 19.0409 80.4207 18.6993ZM75.6733 27.7501C75.6733 28.3421 75.7189 28.9227 75.8099 29.4919C75.9238 30.0612 76.1059 30.5735 76.3564 31.0289C76.6068 31.4615 76.937 31.8144 77.3468 32.0876C77.7567 32.3381 78.2804 32.4633 78.9179 32.4633C79.8515 32.4633 80.5459 32.099 81.0013 31.3704C81.4567 30.619 81.6844 29.6855 81.6844 28.5698C81.6844 27.4996 81.673 26.5775 81.6502 25.8033C81.6502 25.0064 81.6502 24.0842 81.6502 23.0369C81.6502 22.2627 81.5592 21.7162 81.377 21.3975C81.1948 21.0787 80.8761 20.9193 80.4207 20.9193C79.8742 20.9193 79.3164 21.0787 78.7472 21.3975C78.1779 21.7162 77.6656 22.1716 77.2102 22.7636C76.7549 23.3556 76.3792 24.0729 76.0832 24.9153C75.8099 25.7578 75.6733 26.7027 75.6733 27.7501ZM90.7378 12.3809C91.307 12.3809 91.9332 12.2101 92.6162 11.8686C93.3221 11.5042 94.0279 11.0602 94.7338 10.5366C95.4396 10.0129 96.1455 9.44363 96.8513 8.82886C97.5572 8.19132 98.2061 7.61071 98.7981 7.08701C99.3901 6.56332 99.9138 6.13071 100.369 5.78917C100.825 5.42486 101.166 5.24271 101.394 5.24271C101.826 5.24271 102.043 5.51594 102.043 6.0624V12.3809H104.98V14.0886H102.043V27.8867C102.043 28.547 102.043 29.2187 102.043 29.9018C102.043 30.5849 102.077 31.2338 102.145 31.8486C102.236 32.4633 102.396 33.0098 102.623 33.4879C102.851 33.9661 103.204 34.3304 103.682 34.5809C103.819 34.6719 103.955 34.7175 104.092 34.7175C104.229 34.7175 104.388 34.7402 104.57 34.7858C104.525 35.0818 104.377 35.355 104.126 35.6055C103.898 35.8559 103.602 36.0722 103.238 36.2544C102.897 36.4366 102.509 36.5732 102.077 36.6642C101.667 36.7553 101.257 36.8009 100.847 36.8009C99.2079 36.8009 97.8987 36.5276 96.9196 35.9812C95.9405 35.4119 95.1778 34.6833 94.6313 33.7953C94.1076 32.8846 93.7661 31.8599 93.6067 30.7215C93.4473 29.5602 93.3676 28.399 93.3676 27.2378V16.2744C93.3676 16.0239 93.3562 15.7735 93.3335 15.523C93.3335 15.2498 93.2765 15.0107 93.1627 14.8058C93.0716 14.6009 92.9236 14.4301 92.7187 14.2935C92.5138 14.1569 92.2064 14.0886 91.7965 14.0886H90.7378V12.3809ZM108.557 15.6596C109.809 14.4073 111.209 13.4738 112.758 12.859C114.306 12.2215 115.877 11.9027 117.471 11.9027C119.042 11.9027 120.556 12.1987 122.013 12.7907C123.47 13.3599 124.78 14.2366 125.941 15.4206C127.125 16.6046 128.002 17.9593 128.571 19.4849C129.163 21.0104 129.447 22.5701 129.425 24.1639C129.402 25.735 129.072 27.2947 128.434 28.843C127.819 30.3913 126.897 31.7802 125.668 33.0098C124.415 34.2849 123.015 35.2412 121.467 35.8787C119.918 36.4935 118.347 36.8009 116.754 36.8009C115.182 36.8009 113.668 36.5162 112.211 35.947C110.754 35.355 109.445 34.467 108.283 33.283C107.099 32.0762 106.211 30.7101 105.619 29.1846C105.027 27.659 104.743 26.1107 104.766 24.5396C104.811 22.9458 105.141 21.3747 105.756 19.8264C106.394 18.2781 107.327 16.8892 108.557 15.6596ZM113.065 25.0861C113.293 26.5661 113.611 27.9436 114.021 29.2187C114.431 30.4938 114.886 31.5867 115.387 32.4975C115.911 33.4082 116.458 34.1027 117.027 34.5809C117.619 35.059 118.188 35.2526 118.734 35.1615C119.281 35.0704 119.748 34.7061 120.135 34.0686C120.545 33.431 120.852 32.5999 121.057 31.5753C121.285 30.5507 121.398 29.3781 121.398 28.0575C121.421 26.7141 121.319 25.291 121.091 23.7882C120.863 22.3082 120.545 20.9421 120.135 19.6898C119.748 18.4147 119.292 17.3218 118.769 16.411C118.268 15.5002 117.721 14.8058 117.129 14.3276C116.56 13.8267 116.002 13.6218 115.456 13.7129C114.886 13.8039 114.397 14.1682 113.987 14.8058C113.6 15.4433 113.293 16.2744 113.065 17.299C112.86 18.3236 112.746 19.5076 112.723 20.851C112.723 22.1716 112.837 23.5833 113.065 25.0861ZM130.637 36.2886C131.092 35.8332 131.399 35.2981 131.559 34.6833C131.741 34.0458 131.832 33.2375 131.832 32.2584V16.411C131.832 15.4319 131.741 14.635 131.559 14.0202C131.399 13.3827 131.092 12.8362 130.637 12.3809H139.004C139.733 12.3809 140.222 12.6427 140.473 13.1664C140.746 13.6673 140.883 14.3504 140.883 15.2156V15.7962C140.883 16.2061 140.906 16.4452 140.951 16.5135C140.997 16.5818 141.054 16.6159 141.122 16.6159C141.418 16.6159 141.714 16.3769 142.01 15.8987C142.329 15.3978 142.738 14.8513 143.239 14.2593C143.763 13.6446 144.435 13.0981 145.254 12.6199C146.074 12.119 147.156 11.8686 148.499 11.8686C148.954 11.8686 149.433 11.9141 149.934 12.0052C150.434 12.0962 150.89 12.2329 151.3 12.415C151.732 12.5744 152.085 12.7793 152.358 13.0298C152.632 13.2802 152.768 13.5762 152.768 13.9178C152.768 14.0089 152.711 14.191 152.598 14.4642C152.484 14.7147 152.336 15.0221 152.154 15.3864C151.994 15.7279 151.801 16.115 151.573 16.5476C151.345 16.9575 151.129 17.3787 150.924 17.8113C150.696 18.2895 150.469 18.7562 150.241 19.2116C150.036 19.6442 149.831 20.0313 149.626 20.3729C149.421 20.7144 149.228 20.9876 149.046 21.1926C148.886 21.3975 148.727 21.4999 148.567 21.4999C148.203 21.4999 147.918 21.3406 147.714 21.0218C147.531 20.703 147.315 20.3615 147.065 19.9972C146.814 19.6101 146.473 19.2686 146.04 18.9726C145.607 18.6538 144.981 18.4944 144.161 18.4944C143.456 18.4944 142.886 18.6424 142.454 18.9384C142.021 19.2116 141.68 19.5759 141.429 20.0313C141.202 20.4639 141.054 20.9421 140.985 21.4658C140.917 21.9895 140.883 22.4904 140.883 22.9686V32.2584C140.883 33.2375 140.962 34.0458 141.122 34.6833C141.304 35.2981 141.623 35.8332 142.078 36.2886H130.637ZM165.425 15.5913C165.766 15.4547 166.347 15.1815 167.167 14.7716C167.986 14.3618 168.874 13.9519 169.831 13.5421C170.787 13.1095 171.709 12.7224 172.597 12.3809C173.508 12.0393 174.214 11.8686 174.715 11.8686C175.216 11.8686 175.512 12.0052 175.603 12.2784C175.694 12.5516 175.739 12.859 175.739 13.2006V32.2584C175.739 33.2375 175.819 34.0458 175.978 34.6833C176.161 35.2981 176.479 35.8332 176.935 36.2886H165.493C165.949 35.8332 166.256 35.2981 166.415 34.6833C166.598 34.0458 166.689 33.2375 166.689 32.2584V19.1433C166.689 19.0295 166.689 18.8587 166.689 18.631C166.689 18.3806 166.654 18.1187 166.586 17.8455C166.541 17.5722 166.438 17.3104 166.279 17.0599C166.119 16.8095 165.88 16.6273 165.562 16.5135C165.516 16.4907 165.414 16.4566 165.254 16.411C165.118 16.3655 165.049 16.2402 165.049 16.0353C165.049 15.8532 165.095 15.7393 165.186 15.6938C165.3 15.6482 165.379 15.6141 165.425 15.5913ZM166.142 5.10609C166.142 3.60332 166.598 2.39655 167.508 1.48578C168.419 0.575014 169.626 0.119629 171.129 0.119629C172.631 0.119629 173.838 0.575014 174.749 1.48578C175.66 2.39655 176.115 3.60332 176.115 5.10609C176.115 6.60886 175.66 7.81563 174.749 8.7264C173.838 9.63717 172.631 10.0926 171.129 10.0926C169.626 10.0926 168.419 9.63717 167.508 8.7264C166.598 7.81563 166.142 6.60886 166.142 5.10609ZM177.431 36.2886C177.887 35.8332 178.194 35.2981 178.353 34.6833C178.535 34.0458 178.627 33.2375 178.627 32.2584V16.411C178.627 15.4319 178.535 14.635 178.353 14.0202C178.194 13.3827 177.887 12.8362 177.431 12.3809H185.799C186.527 12.3809 187.017 12.6427 187.267 13.1664C187.541 13.6673 187.677 14.3504 187.677 15.2156V15.7962C187.677 16.2061 187.7 16.4452 187.746 16.5135C187.791 16.5818 187.848 16.6159 187.916 16.6159C188.258 16.6159 188.588 16.3769 188.907 15.8987C189.248 15.3978 189.681 14.8513 190.205 14.2593C190.751 13.6446 191.457 13.0981 192.322 12.6199C193.21 12.119 194.371 11.8686 195.806 11.8686C197.058 11.8686 198.06 12.119 198.811 12.6199C199.586 13.1209 200.178 13.7698 200.587 14.5667C201.02 15.3409 201.305 16.2061 201.441 17.1624C201.578 18.0959 201.646 19.0067 201.646 19.8947L201.68 26.4181V32.2584C201.68 33.2375 201.76 34.0458 201.919 34.6833C202.102 35.2981 202.42 35.8332 202.876 36.2886H191.434C191.89 35.8332 192.197 35.2981 192.356 34.6833C192.539 34.0458 192.63 33.2375 192.63 32.2584V21.1584C192.63 20.3615 192.493 19.6556 192.22 19.0409C191.947 18.4261 191.434 18.1187 190.683 18.1187C190.296 18.1187 189.92 18.1984 189.556 18.3578C189.191 18.4944 188.873 18.7562 188.599 19.1433C188.326 19.5076 188.099 19.9972 187.916 20.6119C187.757 21.2267 187.677 22.0122 187.677 22.9686V32.2584C187.677 33.2375 187.757 34.0458 187.916 34.6833C188.099 35.2981 188.417 35.8332 188.873 36.2886H177.431ZM202.697 5.78917C202.697 5.60701 202.754 5.49317 202.868 5.44763C202.959 5.40209 203.027 5.36794 203.073 5.34517C203.414 5.18578 204.006 4.90117 204.849 4.49132C205.714 4.08148 206.636 3.67163 207.615 3.26178C208.617 2.82917 209.585 2.45348 210.518 2.13471C211.475 1.79317 212.203 1.62239 212.704 1.62239C213.205 1.62239 213.501 1.75901 213.592 2.03224C213.683 2.30547 213.729 2.61286 213.729 2.9544V14.2252C213.797 14.3846 213.877 14.487 213.968 14.5326C214.059 14.5553 214.161 14.5667 214.275 14.5667C214.457 14.5667 214.674 14.4301 214.924 14.1569C215.197 13.8609 215.55 13.5535 215.983 13.2347C216.416 12.8932 216.951 12.5858 217.588 12.3126C218.249 12.0166 219.057 11.8686 220.013 11.8686C221.698 11.8686 223.144 12.2556 224.351 13.0298C225.58 13.8039 226.582 14.8058 227.356 16.0353C228.153 17.2649 228.734 18.6538 229.098 20.2021C229.485 21.7276 229.679 23.2646 229.679 24.8129C229.679 26.475 229.462 28.0347 229.03 29.4919C228.597 30.9492 227.971 32.2242 227.151 33.3172C226.332 34.3873 225.318 35.2412 224.112 35.8787C222.928 36.4935 221.561 36.8009 220.013 36.8009C219.581 36.8009 219.125 36.7553 218.647 36.6642C218.169 36.5732 217.679 36.4024 217.178 36.1519C216.7 35.8787 216.222 35.5144 215.744 35.059C215.266 34.6036 214.799 34.0116 214.344 33.283C214.23 33.1009 214.093 32.9756 213.934 32.9073C213.797 32.8162 213.729 32.8959 213.729 33.1464V33.4879C213.729 34.3532 213.592 35.0362 213.319 35.5372C213.069 36.0381 212.579 36.2886 211.85 36.2886H203.483C203.938 35.8332 204.245 35.2981 204.405 34.6833C204.587 34.0458 204.678 33.2375 204.678 32.2584V8.89717C204.678 8.78332 204.678 8.61255 204.678 8.38486C204.678 8.1344 204.633 7.87255 204.541 7.59932C204.473 7.32609 204.337 7.06424 204.132 6.81378C203.927 6.56332 203.619 6.38117 203.209 6.26732C203.164 6.24455 203.073 6.2104 202.936 6.16486C202.777 6.11932 202.697 5.99409 202.697 5.78917ZM213.729 20.4753V27.1353C213.729 27.6135 213.752 28.1599 213.797 28.7747C213.865 29.3895 214.002 29.9815 214.207 30.5507C214.412 31.0972 214.708 31.5639 215.095 31.951C215.505 32.3381 216.051 32.5316 216.734 32.5316C217.691 32.5316 218.431 32.2698 218.954 31.7461C219.478 31.1996 219.865 30.5166 220.116 29.6969C220.366 28.8544 220.514 27.9209 220.56 26.8962C220.628 25.8489 220.662 24.8356 220.662 23.8566C220.662 22.923 220.605 21.9667 220.491 20.9876C220.377 19.9858 220.161 19.075 219.842 18.2553C219.524 17.4356 219.068 16.7639 218.476 16.2402C217.907 15.7166 217.144 15.4547 216.188 15.4547C215.664 15.4547 215.232 15.6369 214.89 16.0012C214.571 16.3655 214.321 16.8095 214.139 17.3332C213.979 17.8341 213.865 18.3806 213.797 18.9726C213.752 19.5418 213.729 20.0427 213.729 20.4753ZM235.133 15.6596C236.385 14.4073 237.784 13.4738 239.333 12.859C240.882 12.2215 242.452 11.9027 244.046 11.9027C245.618 11.9027 247.132 12.1987 248.59 12.7907C250.046 13.3599 251.356 14.2366 252.518 15.4206C253.701 16.6046 254.577 17.9593 255.146 19.4849C255.739 21.0104 256.023 22.5701 256 24.1639C255.978 25.735 255.649 27.2947 255.011 28.843C254.396 30.3913 253.474 31.7802 252.243 33.0098C250.99 34.2849 249.591 35.2412 248.042 35.8787C246.494 36.4935 244.923 36.8009 243.33 36.8009C241.759 36.8009 240.244 36.5162 238.788 35.947C237.329 35.355 236.021 34.467 234.859 33.283C233.675 32.0762 232.787 30.7101 232.195 29.1846C231.603 27.659 231.319 26.1107 231.342 24.5396C231.387 22.9458 231.717 21.3747 232.332 19.8264C232.97 18.2781 233.903 16.8892 235.133 15.6596ZM239.641 25.0861C239.869 26.5661 240.187 27.9436 240.597 29.2187C241.008 30.4938 241.463 31.5867 241.963 32.4975C242.488 33.4082 243.033 34.1027 243.602 34.5809C244.195 35.059 244.765 35.2526 245.31 35.1615C245.858 35.0704 246.323 34.7061 246.712 34.0686C247.12 33.431 247.428 32.5999 247.632 31.5753C247.86 30.5507 247.974 29.3781 247.974 28.0575C247.997 26.7141 247.895 25.291 247.668 23.7882C247.44 22.3082 247.12 20.9421 246.712 19.6898C246.323 18.4147 245.867 17.3218 245.346 16.411C244.843 15.5002 244.297 14.8058 243.704 14.3276C243.135 13.8267 242.578 13.6218 242.032 13.7129C241.463 13.8039 240.972 14.1682 240.564 14.8058C240.175 15.4433 239.869 16.2744 239.641 17.299C239.435 18.3236 239.321 19.5076 239.3 20.851C239.3 22.1716 239.414 23.5833 239.641 25.0861ZM267.465 12.3809C267.33 12.6996 267.339 13.2119 267.501 13.9178C267.659 14.6009 267.92 15.4206 268.286 16.3769C268.672 17.3332 269.139 18.3919 269.685 19.5532C270.233 20.6916 270.823 21.8642 271.461 23.071C271.644 23.3215 271.86 23.4467 272.111 23.4467C272.405 23.4467 272.69 23.219 272.965 22.7636C273.238 22.3082 273.373 21.5227 273.373 20.407C273.373 18.8132 273.01 17.3332 272.282 15.967C271.575 14.5781 270.676 13.3827 269.583 12.3809H277.234C277.849 12.3809 278.394 12.6655 278.873 13.2347C279.374 13.7812 279.625 14.487 279.625 15.3522C279.625 16.3996 279.397 17.447 278.942 18.4944C278.487 19.519 277.906 20.4639 277.199 21.3292C276.516 22.1944 275.754 22.9572 274.91 23.6175C274.068 24.2778 273.259 24.7559 272.486 25.0519C273.214 26.3726 273.942 27.659 274.673 28.9113C275.422 30.1409 276.129 31.2679 276.788 32.2925C277.472 33.3172 278.076 34.1824 278.601 34.8882C279.146 35.5941 279.578 36.0609 279.898 36.2886H267.944C268.079 35.9698 268.07 35.4689 267.909 34.7858C267.75 34.0799 267.477 33.2489 267.09 32.2925C266.725 31.3362 266.27 30.2889 265.724 29.1504C265.176 27.9892 264.586 26.8052 263.948 25.5984C263.765 25.3479 263.549 25.2227 263.298 25.2227C263.004 25.2227 262.719 25.4504 262.444 25.9058C262.171 26.3612 262.036 27.1467 262.036 28.2624C262.036 29.8562 262.387 31.3476 263.094 32.7366C263.822 34.1027 264.733 35.2867 265.826 36.2886H258.175C257.56 36.2886 257.003 36.0153 256.503 35.4689C256.023 34.8996 255.784 34.1824 255.784 33.3172C255.784 32.2698 256.012 31.2338 256.467 30.2092C256.922 29.1618 257.503 28.2055 258.21 27.3402C258.915 26.475 259.678 25.7122 260.499 25.0519C261.341 24.3916 262.15 23.9135 262.923 23.6175C262.195 22.2969 261.455 21.0218 260.703 19.7922C259.975 18.5399 259.268 17.4015 258.585 16.3769C257.926 15.3522 257.321 14.487 256.775 13.7812C256.251 13.0753 255.831 12.6086 255.511 12.3809H267.465Z" fill="#1D1989"/>
</svg>
