<svg width="176" height="18" viewBox="0 0 176 18" fill="none" xmlns="http://www.w3.org/2000/svg">
<path d="M9.55309 6.92V11.336H13.4171C12.5531 12.104 11.1371 12.584 9.48109 12.584C6.74509 12.584 4.68109 10.928 4.68109 8.72C4.68109 6.512 6.74509 4.856 9.48109 4.856C10.9451 4.856 12.1931 5.216 13.1051 5.816H17.6891C16.8731 2.528 13.5131 0.151999 9.48109 0.151999C4.44109 0.151999 0.649094 3.848 0.649094 8.72C0.649094 13.592 4.44109 17.288 9.48109 17.288C12.0971 17.288 13.8251 16.256 15.0491 14.456V17H18.0491V6.92H9.55309ZM30.8672 0.439999V6.248H24.2192V0.439999H20.3072V17H24.2192V11.096H30.8672V17H34.7792V0.439999H30.8672ZM45.4108 17.288C50.4268 17.288 54.2428 13.592 54.2428 8.72C54.2428 3.848 50.4268 0.151999 45.4108 0.151999C40.3708 0.151999 36.5788 3.848 36.5788 8.72C36.5788 13.592 40.3708 17.288 45.4108 17.288ZM45.4108 12.584C42.6748 12.584 40.6108 10.928 40.6108 8.72C40.6108 6.512 42.6748 4.856 45.4108 4.856C48.1468 4.856 50.2108 6.512 50.2108 8.72C50.2108 10.928 48.1468 12.584 45.4108 12.584ZM62.5053 17.288C66.5133 17.288 69.6093 15.008 69.6093 11.624C69.6093 8.264 66.5373 6.92 63.5853 6.56C62.2173 6.416 59.5773 6.032 59.5773 5.336C59.5773 4.832 60.6813 4.496 62.2413 4.496C64.0653 4.496 65.2893 4.952 65.2893 5.552H69.3213C69.3213 2.528 66.3933 0.151999 62.3853 0.151999C58.5213 0.151999 55.5453 2.336 55.5453 5.576C55.5453 8.84 58.5693 10.376 61.2573 10.736C63.5613 11.024 65.5773 11.288 65.5773 12.008C65.5773 12.56 64.3053 12.944 62.6733 12.944C60.7053 12.944 59.3133 12.368 59.3133 11.672H55.2813C55.2813 14.888 58.3533 17.288 62.5053 17.288ZM84.1488 0.439999H70.4688V5.048H75.3648V17H79.2528V5.048H84.1488V0.439999ZM90.1477 17H94.3477L96.6517 8.888H97.3717L99.6517 17H103.876L109.036 0.439999H104.644L101.692 9.8H101.26L98.5237 0.439999H95.2357L92.5477 9.8H92.1157L89.1157 0.439999H84.9877L90.1477 17ZM119.788 17H124.516L121.06 11.648C122.98 10.664 124.228 8.72 124.228 6.392C124.228 2.984 121.54 0.439999 118.012 0.439999H110.284V17H114.196V12.368H116.812L119.788 17ZM114.196 5.048H117.916C119.38 5.048 120.196 5.528 120.196 6.392C120.196 7.28 119.38 7.76 117.916 7.76H114.196V5.048ZM126.01 17H129.922V0.439999H126.01V17ZM145.368 0.439999H131.688V5.048H136.584V17H140.472V5.048H145.368V0.439999ZM151.063 12.392V10.904H158.647V6.44H151.063V5.048H159.415V0.439999H147.151V17H159.535V12.392H151.063ZM170.928 17H175.656L172.2 11.648C174.12 10.664 175.368 8.72 175.368 6.392C175.368 2.984 172.68 0.439999 169.152 0.439999H161.424V17H165.336V12.368H167.952L170.928 17ZM165.336 5.048H169.056C170.52 5.048 171.336 5.528 171.336 6.392C171.336 7.28 170.52 7.76 169.056 7.76H165.336V5.048Z" fill="#139576"/>
</svg>
