<svg width="160" height="51" viewBox="0 0 160 51" fill="none" xmlns="http://www.w3.org/2000/svg">
<path fill-rule="evenodd" clip-rule="evenodd" d="M13.1579 0C5.89099 0 0 5.88491 0 13.1443V28.2444V29.6373V30.1679C0 30.2672 0.0109929 30.3637 0.0318278 30.4566C0.402591 35.21 3.97182 39.0665 8.59151 39.8804L5.1919 49.2197C4.94355 49.9019 5.29587 50.6561 5.9788 50.9043C6.66175 51.1523 7.4167 50.8003 7.66504 50.1181L11.334 40.0389H21.1336C27.6738 40.0389 32.9757 34.7426 32.9757 28.209V18.6807H34.3567C35.5984 18.6807 36.62 17.3903 35.9901 16.1022C35.1353 14.3536 32.2276 9.41886 26.348 9.41886C24.5105 9.41886 22.975 9.81035 21.6863 10.5352C20.4016 11.2577 19.4371 12.2691 18.6759 13.3988C17.5209 15.1132 16.7496 17.2636 16.0463 19.2249C15.858 19.7497 15.6746 20.2612 15.49 20.747C13.0942 27.0526 12.0261 30.5376 11.7068 31.6334C11.4886 32.3828 11.7676 33.2875 12.5857 33.709C13.2282 34.04 14.5405 34.572 16.3036 34.5358C18.0899 34.4994 20.2393 33.881 22.5221 32.0567C24.3912 30.5628 25.5745 28.2827 26.2805 26.5113C26.6417 25.6053 26.8957 24.7864 27.0599 24.1929C27.1422 23.8953 27.2025 23.6526 27.2428 23.4814C27.2629 23.3957 27.278 23.3279 27.2884 23.2799C27.2937 23.2559 27.2978 23.2368 27.3007 23.223L27.3041 23.2062L27.3053 23.2008L27.3057 23.199L27.3058 23.1982C27.3058 23.1978 27.3059 23.1975 26.0161 22.938L27.3059 23.1975C27.4493 22.4859 26.9882 21.7928 26.2758 21.6494C25.5636 21.5061 24.8699 21.9665 24.7262 22.6779L24.7261 22.6784L24.7247 22.6849L24.7221 22.6976C24.7207 22.7042 24.7189 22.7122 24.7168 22.7217C24.7095 22.756 24.6975 22.8096 24.6809 22.8802C24.6476 23.0218 24.5957 23.2313 24.5234 23.4926C24.3784 24.0168 24.1534 24.7414 23.8357 25.5388C23.1838 27.1742 22.2092 28.9401 20.8782 30.0038C19.0264 31.4837 17.4305 31.8834 16.2497 31.9076C15.5151 31.9226 14.9025 31.7926 14.4507 31.6446C14.9214 30.1131 15.9767 26.8744 17.9504 21.6799C18.1791 21.078 18.3912 20.489 18.5972 19.9163L18.5974 19.916C19.2843 18.0079 19.9059 16.2815 20.8591 14.8666C21.4499 13.9898 22.1317 13.3015 22.9772 12.826C23.8187 12.3527 24.8975 12.0477 26.348 12.0477C29.7025 12.0477 31.8159 14.302 32.945 16.0519H32.1862C31.1688 16.0519 30.3441 16.8757 30.3441 17.8921V28.209C30.3441 33.2906 26.2204 37.4101 21.1336 37.4101H10.4124C6.11516 37.4101 2.63158 33.9301 2.63158 29.6373V28.2444V13.1443C2.63158 7.3368 7.34437 2.62887 13.1579 2.62887H32.7654C38.5789 2.62887 43.2917 7.3368 43.2917 13.1443V32.7316C43.2917 38.5392 38.5789 43.2471 32.7654 43.2471H15.5914C14.8647 43.2471 14.2757 43.8357 14.2757 44.5615C14.2757 45.2875 14.8647 45.8759 15.5914 45.8759H32.7654C40.0324 45.8759 45.9233 39.9911 45.9233 32.7316V13.1443C45.9233 5.88491 40.0324 0 32.7654 0H13.1579Z" fill="white"/>
<path d="M62.7734 32.4663V9.75293H66.1208V19.343C66.6471 18.4387 67.3734 17.7342 68.2998 17.2294C69.2471 16.7037 70.2892 16.4408 71.4261 16.4408C73.2998 16.4408 74.7735 17.0296 75.8471 18.2074C76.9208 19.3851 77.4577 21.1412 77.4577 23.4756V32.4663H74.1419V23.8226C74.1419 20.7942 72.9314 19.2799 70.5103 19.2799C69.2471 19.2799 68.1945 19.7216 67.3524 20.6049C66.5313 21.4882 66.1208 22.75 66.1208 24.3905V32.4663H62.7734Z" fill="white"/>
<path d="M86.7054 32.8455C85.3791 32.8455 84.2843 32.6247 83.4212 32.1831C82.558 31.7414 81.9159 31.1631 81.4949 30.448C81.0738 29.7119 80.8633 28.9127 80.8633 28.0505C80.8633 26.5363 81.4528 25.3375 82.6317 24.4542C83.8106 23.5709 85.4949 23.1292 87.6843 23.1292H91.7896V22.8453C91.7896 21.6255 91.4528 20.7107 90.7791 20.1008C90.1264 19.4909 89.2738 19.1859 88.2212 19.1859C87.2949 19.1859 86.4843 19.4173 85.7896 19.88C85.1159 20.3216 84.7054 20.9841 84.558 21.8674H81.2107C81.3159 20.7317 81.6949 19.7643 82.3475 18.9651C83.0212 18.1449 83.8633 17.5245 84.8738 17.1039C85.9054 16.6622 87.0317 16.4414 88.2528 16.4414C90.4422 16.4414 92.137 17.0198 93.337 18.1765C94.537 19.3121 95.137 20.8684 95.137 22.8453V32.467H92.2317L91.9475 29.7855C91.5054 30.6478 90.8633 31.3734 90.0212 31.9622C89.1791 32.5511 88.0738 32.8455 86.7054 32.8455ZM87.3685 30.1325C88.2738 30.1325 89.0317 29.9222 89.6422 29.5016C90.2738 29.06 90.758 28.4816 91.0949 27.7666C91.4528 27.0515 91.6738 26.2628 91.758 25.4006H88.0317C86.7054 25.4006 85.758 25.6319 85.1896 26.0946C84.6422 26.5573 84.3685 27.1356 84.3685 27.8297C84.3685 28.5447 84.6317 29.1125 85.158 29.5332C85.7054 29.9327 86.4422 30.1325 87.3685 30.1325Z" fill="white"/>
<path d="M99.04 32.467V16.82H102.04L102.324 19.7853C102.872 18.7548 103.63 17.9451 104.598 17.3563C105.587 16.7464 106.777 16.4414 108.166 16.4414V19.9431H107.251C106.324 19.9431 105.493 20.1008 104.756 20.4163C104.04 20.7107 103.461 21.2259 103.019 21.962C102.598 22.6771 102.387 23.676 102.387 24.9589V32.467H99.04Z" fill="white"/>
<path d="M111.036 32.4663V9.75293H114.384V23.2863L120.383 16.8193H124.394L117.731 23.9173L125.373 32.4663H121.141L114.384 24.4536V32.4663H111.036Z" fill="white"/>
<path d="M134.09 32.8455C132.553 32.8455 131.185 32.509 129.985 31.836C128.806 31.142 127.88 30.1851 127.206 28.9653C126.532 27.7455 126.195 26.3259 126.195 24.7066C126.195 23.0661 126.522 21.6255 127.174 20.3847C127.848 19.1439 128.774 18.1765 129.953 17.4824C131.153 16.7884 132.543 16.4414 134.122 16.4414C135.659 16.4414 136.996 16.7884 138.132 17.4824C139.269 18.1554 140.153 19.0598 140.785 20.1954C141.417 21.3311 141.732 22.5824 141.732 23.9494C141.732 24.1598 141.722 24.3911 141.701 24.6435C141.701 24.8748 141.69 25.1377 141.669 25.4321H129.48C129.585 26.9464 130.08 28.1031 130.964 28.9022C131.869 29.6804 132.911 30.0694 134.09 30.0694C135.038 30.0694 135.827 29.8591 136.459 29.4385C137.111 28.9969 137.596 28.408 137.911 27.6719H141.259C140.838 29.1441 139.996 30.3744 138.732 31.3628C137.49 32.3513 135.943 32.8455 134.09 32.8455ZM134.09 19.1859C132.975 19.1859 131.985 19.5224 131.122 20.1954C130.258 20.8474 129.732 21.8358 129.543 23.1608H138.385C138.322 21.941 137.89 20.9736 137.09 20.2585C136.29 19.5435 135.29 19.1859 134.09 19.1859Z" fill="white"/>
<path d="M145.205 32.467V16.82H148.173L148.426 19.5645C148.91 18.5971 149.616 17.84 150.542 17.2932C151.489 16.7253 152.574 16.4414 153.795 16.4414C155.689 16.4414 157.174 17.0303 158.247 18.208C159.342 19.3857 159.889 21.1418 159.889 23.4763V32.467H156.574V23.8233C156.574 20.7948 155.331 19.2806 152.847 19.2806C151.605 19.2806 150.574 19.7222 149.752 20.6055C148.952 21.4888 148.552 22.7507 148.552 24.3911V32.467H145.205Z" fill="white"/>
</svg>
