<svg width="206" height="44" viewBox="0 0 206 44" fill="none" xmlns="http://www.w3.org/2000/svg">
<path d="M88.9624 39.2047L94.5199 28.9636L93.2632 28.8758L86.5331 8.95319L92.3558 9.36006L97.1574 24.3584L104.252 10.1914L109.949 10.5895L94.6594 39.6028L88.9624 39.2047Z" fill="#F17878"/>
<path d="M113.507 33.7056L116.764 13.1739L121.45 13.9156L121.467 16.7613C122.288 15.8728 123.284 15.2242 124.454 14.8153C125.656 14.3833 126.976 14.281 128.414 14.5086C131.594 15.0118 133.652 16.5965 134.59 19.2627C135.516 18.2494 136.654 17.51 138.003 17.0447C139.38 16.5836 140.815 16.4713 142.308 16.7076C144.99 17.1321 146.923 18.2584 148.107 20.0866C149.291 21.9147 149.638 24.3742 149.147 27.465L147.309 39.0555L142 38.2153L143.76 27.1215C144.04 25.3553 143.909 23.9484 143.366 22.9007C142.852 21.8574 141.889 21.2242 140.479 21.001C139.041 20.7734 137.797 21.114 136.746 22.0226C135.722 22.9356 135.062 24.3304 134.764 26.2069L133.083 36.804L127.774 35.9637L129.534 24.87C129.814 23.1038 129.683 21.6969 129.141 20.6492C128.598 19.6015 127.608 18.9639 126.17 18.7363C124.76 18.5131 123.529 18.8558 122.478 19.7645C121.455 20.6775 120.794 22.0722 120.497 23.9488L118.816 34.5458L113.507 33.7056Z" fill="#FFC481"/>
<path d="M59.5909 29.0483L58.5009 8.28875L63.2394 8.04088L63.8434 11.5347C64.4219 10.2733 65.2932 9.24848 66.4572 8.46013C67.6492 7.67032 69.0699 7.23228 70.7193 7.14601C73.2913 7.01147 75.3326 7.71609 76.8433 9.25986C78.3541 10.8036 79.1915 13.1381 79.3556 16.2632L79.971 27.9822L74.6034 28.263L74.0144 17.0462C73.9206 15.2604 73.4854 13.9122 72.7087 13.0015C71.9321 12.0909 70.7749 11.6757 69.2373 11.7562C67.7277 11.8351 66.5115 12.4303 65.5887 13.5418C64.6939 14.6518 64.2963 16.1555 64.3959 18.0529L64.9585 28.7675L59.5909 29.0483Z" fill="#3BAA8F"/>
<path d="M165.801 44C163.786 44 161.966 43.539 160.343 42.6169C158.747 41.6948 157.474 40.4235 156.523 38.8029C155.599 37.1544 155.138 35.2544 155.138 33.1029C155.139 30.9514 155.615 29.0654 156.567 27.4448C157.52 25.7963 158.794 24.511 160.39 23.5889C162.013 22.6668 163.833 22.2058 165.849 22.2058C167.836 22.2058 169.628 22.6668 171.223 23.5889C172.847 24.511 174.12 25.7963 175.044 27.4448C175.995 29.0654 176.47 30.9514 176.47 33.1029C176.469 35.2544 175.993 37.1544 175.041 38.8029C174.116 40.4235 172.842 41.6948 171.218 42.6169C169.595 43.539 167.789 44 165.801 44ZM165.802 39.3478C167.202 39.3478 168.42 38.8309 169.456 37.797C170.492 36.7353 171.01 35.1706 171.011 33.1029C171.011 31.0352 170.494 29.4845 169.458 28.4507C168.423 27.3889 167.219 26.858 165.848 26.858C164.42 26.858 163.188 27.3889 162.152 28.4507C161.144 29.4845 160.64 31.0352 160.639 33.1029C160.639 35.1706 161.142 36.7353 162.15 37.797C163.185 38.8309 164.403 39.3478 165.802 39.3478Z" fill="#3BAA8F"/>
<path d="M44.6477 6.65098C43.6829 6.82112 42.8324 6.67315 42.0965 6.20709C41.3881 5.73616 40.9563 5.06042 40.8011 4.17986C40.6459 3.2993 40.823 2.53037 41.3325 1.87307C41.8647 1.1834 42.6132 0.7535 43.5781 0.583364C44.543 0.413228 45.3796 0.563622 46.088 1.03455C46.8191 1.4731 47.2623 2.13265 47.4175 3.01321C47.5727 3.89377 47.3842 4.67889 46.852 5.36856C46.3474 6.05337 45.6126 6.48085 44.6477 6.65098ZM46.1706 30.769L42.5615 10.2959L47.8546 9.3626L51.4637 29.8357L46.1706 30.769Z" fill="#FFC481"/>
<path d="M186.591 40.1357L180.155 20.3652L184.667 18.9017L186.157 22.1204C186.389 20.7526 186.964 19.5376 187.884 18.4754C188.831 17.4046 190.09 16.6145 191.66 16.1051C194.11 15.3107 196.264 15.464 198.124 16.5649C199.984 17.6658 201.398 19.7044 202.367 22.6806L206 33.8414L200.888 35.4992L197.411 24.8167C196.857 23.116 196.087 21.9261 195.1 21.2471C194.114 20.5681 192.889 20.4661 191.424 20.9409C189.987 21.4072 188.966 22.2963 188.363 23.6083C187.787 24.9116 187.793 26.4668 188.381 28.2738L191.703 38.478L186.591 40.1357Z" fill="#F17878"/>
<path d="M6.59306 43.2665L0.155742 23.4963L4.66866 22.033L5.97753 24.5611C6.30504 23.3973 6.89713 22.3681 7.7538 21.4734C8.62845 20.5435 9.75802 19.8541 11.1425 19.4052C14.2044 18.4124 16.7593 18.8913 18.8074 20.842C19.1715 19.5194 19.8488 18.345 20.8393 17.3188C21.8564 16.2839 23.0838 15.5334 24.5215 15.0672C27.1041 14.2299 29.3386 14.3574 31.2249 15.4497C33.1112 16.542 34.5389 18.5762 35.508 21.5524L39.142 32.713L34.03 34.3705L30.5518 23.6882C29.998 21.9875 29.2412 20.7934 28.2814 20.1057C27.3483 19.4094 26.2027 19.2814 24.8449 19.7217C23.4604 20.1706 22.5065 21.038 21.9833 22.324C21.4867 23.6014 21.5326 25.1436 22.121 26.9505L25.4435 37.1545L20.3315 38.812L16.8533 28.1297C16.2995 26.429 15.5427 25.2349 14.5829 24.5472C13.6231 23.8596 12.451 23.7402 11.0665 24.1891C9.70864 24.6294 8.7681 25.4925 8.24489 26.7785C7.74831 28.0559 7.79419 29.5981 8.38255 31.405L11.705 41.609L6.59306 43.2665Z" fill="#F17878"/>
</svg>
