<svg width="217" height="44" viewBox="0 0 217 44" fill="none" xmlns="http://www.w3.org/2000/svg">
<path d="M72.3544 36V35.744C71.8424 35.424 71.7464 35.168 71.2664 34.56C71.0744 34.304 70.7864 32.992 70.7864 31.968L70.5624 23.2C70.4344 18.4 67.4264 15.712 62.9144 15.552C60.0984 15.424 57.1864 16.736 55.7464 19.552L55.0424 20.896L54.7544 20.224C53.6344 17.408 51.5544 15.776 47.8424 15.744C43.3304 15.712 41.2824 18.72 40.5784 20.128L40.1624 20.96L40.0024 20.768C39.8104 20.544 39.9384 18.72 40.0024 17.44C40.0024 16.48 40.0024 16.832 40.0344 16.64L39.7144 16.48C39.1704 16.672 38.8504 16.8 38.3064 16.992C37.5384 17.216 37.0264 17.376 36.2264 17.568V17.856C36.3864 17.92 36.8344 18.24 37.1224 18.592C37.4744 19.04 37.6344 19.936 37.6344 20.32L37.6024 31.968C37.6024 32.288 37.4424 34.08 37.2184 34.464C36.8984 35.008 36.5784 35.424 36.0024 35.744V36C37.3464 35.904 38.1784 35.904 39.5544 35.904C40.5784 35.904 41.1864 35.936 42.2104 36V35.744C41.7304 35.488 41.6024 35.36 41.1224 34.752C40.8984 34.496 40.3544 33.088 40.3544 31.968V25.568C40.3544 21.28 42.3704 16.64 47.0424 16.832C51.5544 17.024 52.6744 20.8 52.6744 24.448L52.6424 31.968C52.6424 32.288 52.2584 34.368 52.0024 34.688C51.6184 35.168 51.2344 35.52 50.6584 35.744V36C52.0024 35.84 52.8344 35.808 54.2104 35.808C55.4584 35.808 56.1944 35.872 57.4424 36V35.744C56.8344 35.456 56.6104 35.168 56.1304 34.56C55.9064 34.304 55.5864 32.992 55.5864 31.968L55.4904 24.224C55.4584 20.864 57.4104 16.64 62.1464 16.64C65.2184 16.608 67.6824 19.648 67.6824 23.68L67.7144 31.616C67.7144 31.936 67.5864 33.856 67.2024 34.464C66.8184 35.008 66.4984 35.392 65.9224 35.744V36C67.0104 35.872 67.6824 35.808 68.7704 35.808C70.1464 35.808 70.9784 35.808 72.3544 36ZM95.9536 26.912C96.4016 21.28 91.8256 15.648 85.0416 15.68C78.5136 15.712 73.6176 20.544 73.9056 26.56C74.1616 32.32 80.0176 36.512 84.9456 36.512C90.6736 36.512 95.5376 32.544 95.9536 26.912ZM92.5936 26.4C92.4976 31.232 90.8016 35.68 85.2016 35.808C79.8576 35.904 77.5216 30.976 77.4576 26.208C77.3616 21.408 79.4096 16.48 84.8816 16.352C90.7376 16.256 92.6896 21.632 92.5936 26.4ZM120.047 26.912C120.495 21.28 115.919 15.648 109.135 15.68C102.607 15.712 97.7114 20.544 97.9994 26.56C98.2554 32.32 104.111 36.512 109.039 36.512C114.767 36.512 119.631 32.544 120.047 26.912ZM116.687 26.4C116.591 31.232 114.895 35.68 109.295 35.808C103.951 35.904 101.615 30.976 101.551 26.208C101.455 21.408 103.503 16.48 108.975 16.352C114.831 16.256 116.783 21.632 116.687 26.4ZM145.549 36V35.744C145.037 35.328 144.781 34.912 144.461 34.336C144.269 33.984 143.917 32.32 143.917 32L143.117 13.056C143.117 12.896 143.149 10.496 143.149 9.664C143.149 8.704 143.149 8.416 143.149 8.64L142.861 8.448C142.189 8.768 141.773 8.928 141.069 9.152C140.269 9.408 139.789 9.568 138.989 9.728L138.925 10.08C139.117 10.112 139.533 10.24 139.789 10.496C140.269 10.88 140.781 11.584 140.781 13.152V19.424L140.301 18.912C138.637 17.024 135.917 15.776 132.749 15.744C126.989 15.712 122.253 20.256 122.125 25.984C121.965 32 126.701 36.992 133.517 36.64C135.725 36.544 138.605 35.616 140.589 32.448L141.197 31.52C141.197 32.448 141.389 33.6 141.453 33.92C141.613 34.656 142.029 35.872 142.061 36H145.549ZM140.877 25.824C141.037 31.424 138.445 35.776 133.389 35.808C128.269 35.808 125.709 31.424 125.773 26.144C125.837 21.28 127.149 16.32 133.485 16.48C138.765 16.576 140.717 20.704 140.877 25.824ZM154.42 36V35.744C153.78 35.52 153.428 35.36 152.948 34.56C152.82 34.272 152.436 32.192 152.404 31.648L151.988 14.304C151.988 14.016 151.924 11.296 151.86 9.376C151.86 8.416 151.86 8.736 151.86 8.544L151.636 8.448C151.028 8.64 150.676 8.768 150.036 8.928C149.268 9.12 148.756 9.248 147.956 9.408V9.728C148.116 9.824 148.628 10.144 148.916 10.528C149.268 10.976 149.492 12.192 149.492 13.184L149.46 31.584C149.46 31.904 149.3 33.792 148.916 34.464C148.372 35.328 148.084 35.488 147.412 35.744V36C148.756 35.904 149.524 35.904 150.9 35.904C152.244 35.904 153.076 35.904 154.42 36ZM159.1 13.216C161.404 13.12 161.244 9.664 158.94 9.792C156.636 9.888 156.796 13.312 159.1 13.216ZM163.068 36V35.744C162.396 35.52 162.012 35.104 161.532 34.496C161.34 34.272 161.116 32.992 161.052 32L160.604 22.432C160.604 22.144 160.444 18.912 160.444 17.536C160.444 16.576 160.444 16.672 160.444 16.48L160.092 16.448C159.452 16.64 159.036 16.736 158.364 16.896C157.66 17.088 157.212 17.184 156.476 17.344V17.6C156.668 17.664 157.404 18.016 157.724 18.528C158.044 19.04 158.108 19.648 158.108 20.384L158.076 32C158.076 32.32 158.14 33.696 157.788 34.464C157.468 35.168 156.892 35.52 156.156 35.744V36C157.404 35.872 158.204 35.808 159.484 35.808C160.86 35.808 161.692 35.84 163.068 36ZM183.727 29.632C183.503 25.568 180.271 24.928 176.271 24.576L175.631 24.512C172.431 24.224 169.263 23.872 169.231 20.896C169.231 18.176 171.215 16.224 175.215 16.352C176.847 16.416 180.111 17.088 181.167 19.808L181.359 20.288L181.743 20.416L182.607 17.216L182.159 17.056C180.527 16.416 177.871 15.712 175.343 15.712C171.183 15.712 166.575 17.472 166.479 21.792C166.351 25.152 170.383 26.752 173.935 27.136L174.735 27.232C177.807 27.552 180.975 27.616 181.039 31.008C181.071 34.4 177.263 35.808 173.839 35.584C171.183 35.424 167.215 34.08 166.575 31.2L166.479 30.752L166.287 30.688L164.975 34.496L165.583 34.752C168.047 35.744 170.959 36.416 174.095 36.448C179.343 36.48 183.951 33.664 183.727 29.632ZM194.78 17.408C194.78 16.992 194.14 16.96 193.692 16.96H190.94C190.748 15.552 190.94 13.056 191.036 12.448C191.196 11.52 191.196 11.744 191.26 11.552L190.588 11.424C190.428 12.384 189.692 14.432 188.38 15.744C187.452 16.64 186.908 17.024 185.5 17.536V18.016L188.316 17.984L188.284 31.968C188.284 34.272 188.732 34.88 188.956 35.264C189.564 36.288 191.164 36 193.468 36H194.076V35.744C193.436 35.488 193.052 35.2 192.54 34.752C191.548 33.888 191.164 30.944 191.132 29.472L190.94 18.048H193.82C194.268 18.048 194.78 18.208 194.78 17.408ZM215.664 29.632C215.44 25.568 212.208 24.928 208.208 24.576L207.568 24.512C204.368 24.224 201.2 23.872 201.168 20.896C201.168 18.176 203.152 16.224 207.152 16.352C208.784 16.416 212.048 17.088 213.104 19.808L213.296 20.288L213.68 20.416L214.544 17.216L214.096 17.056C212.464 16.416 209.808 15.712 207.28 15.712C203.12 15.712 198.512 17.472 198.416 21.792C198.288 25.152 202.32 26.752 205.872 27.136L206.672 27.232C209.744 27.552 212.912 27.616 212.976 31.008C213.008 34.4 209.2 35.808 205.776 35.584C203.12 35.424 199.152 34.08 198.512 31.2L198.416 30.752L198.224 30.688L196.912 34.496L197.52 34.752C199.984 35.744 202.896 36.416 206.032 36.448C211.28 36.48 215.888 33.664 215.664 29.632Z" fill="#123352"/>
<path d="M26.7037 0L25.3088 9.75512e-06V17.1549C24.6801 16.8514 23.9901 16.6922 23.2905 16.6894C22.359 16.6894 21.4485 16.9624 20.6741 17.474C19.8996 17.9855 19.296 18.7126 18.9395 19.5632C18.5831 20.4138 18.4898 21.3499 18.6715 22.2529C18.8533 23.1559 19.3018 23.9854 19.9604 24.6365C20.619 25.2875 21.4582 25.7309 22.3717 25.9105C23.2853 26.0902 24.2322 25.998 25.0927 25.6456C25.9532 25.2933 26.6887 24.6966 27.2062 23.931C27.7237 23.1655 27.9999 22.2654 27.9999 21.3447V9.75512e-06L26.7037 0ZM23.2905 23.3398C22.8913 23.3398 22.5011 23.2228 22.1692 23.0036C21.8372 22.7844 21.5786 22.4728 21.4258 22.1082C21.273 21.7436 21.2331 21.3425 21.3109 20.9555C21.3888 20.5685 21.581 20.213 21.8633 19.9339C22.1456 19.6549 22.5052 19.4649 22.8967 19.3879C23.2882 19.3109 23.6941 19.3504 24.0629 19.5014C24.4317 19.6525 24.7469 19.9082 24.9687 20.2363C25.1904 20.5644 25.3088 20.9501 25.3088 21.3447C25.3088 21.8738 25.0962 22.3813 24.7177 22.7555C24.3391 23.1296 23.8258 23.3398 23.2905 23.3398Z" fill="#123352"/>
<rect width="21.7851" height="2.69184" fill="#123352"/>
<rect x="3.26758" y="5.38367" width="18.5173" height="2.69184" fill="#123352"/>
<rect x="6.53564" y="10.7674" width="15.2496" height="2.69184" fill="#123352"/>
</svg>
