<svg width="385" height="56" viewBox="0 0 385 56" fill="none" xmlns="http://www.w3.org/2000/svg">
<path d="M46.3831 46.032C43.3591 46.032 38.3191 49.336 34.2871 47.488C29.6391 45.36 29.6951 37.072 29.0791 27.552C28.4631 18.368 26.6711 14.56 20.4551 14.56C17.6551 14.56 14.4631 16.24 12.5591 17.472V16.464C12.5591 14.896 11.9991 14.112 10.2631 14.672L2.31114 17.36C0.967136 17.808 0.239136 18.256 0.239136 19.32C0.239136 20.104 0.799136 20.552 1.30314 20.944C2.31114 21.728 3.03914 22.512 3.03914 24.192V35.28C3.03914 36.288 2.81514 37.52 1.30314 38.696C0.799136 39.088 0.239136 39.704 0.239136 40.488C0.239136 41.552 0.463136 42 1.69514 42H13.7911C15.0231 42 15.2471 41.664 15.2471 40.544C15.2471 39.704 14.6871 39.088 14.1831 38.696C12.6711 37.52 12.4471 36.792 12.4471 35.28L12.5031 24.08V22.12C13.6791 21.448 14.9111 21.056 16.0311 21.056C19.0551 21.056 19.2791 23.576 19.6711 28.28C20.7351 42.392 24.7671 48.832 33.4471 51.912C36.0231 52.976 39.8871 53.872 43.2471 53.872C46.7751 53.872 50.3031 52.864 50.3031 49.784C50.3031 46.928 48.2311 46.032 46.3831 46.032Z" fill="white"/>
<path d="M39.2545 11.872C42.9505 11.872 46.5905 9.12803 46.5905 6.44003C46.5905 4.14403 45.0785 2.40803 42.9505 2.29603C39.5345 2.12803 35.5025 5.09603 35.5025 7.95203C35.5025 10.08 37.1265 11.872 39.2545 11.872ZM48.3265 37.912L47.0945 37.632C46.0305 37.352 45.8065 36.176 45.8065 35.28L45.8625 24.08L45.9185 16.464C45.9185 14.896 45.3585 14.112 43.6225 14.672L35.6705 17.36C34.3265 17.808 33.5985 18.256 33.5985 19.32C33.5985 20.104 34.1585 20.552 34.6625 20.944C35.6705 21.728 36.3985 22.512 36.3985 24.192V35.28C36.4545 41.496 38.9745 43.12 43.7905 42.168L47.2065 41.496C48.6065 41.216 49.2225 40.712 49.2225 39.536C49.2225 38.472 48.9425 38.024 48.3265 37.912Z" fill="white"/>
<path d="M68.3946 2.24003C60.1626 2.24003 54.5066 7.16803 54.3386 15.008L52.2666 15.064C50.9786 15.12 50.6426 15.456 50.6426 17.024C50.6426 18.704 50.9786 19.04 52.3786 19.04H54.3386L54.2826 35.28C54.2826 36.288 54.0586 37.52 52.5466 38.696C52.0426 39.088 51.4826 39.704 51.4826 40.488C51.4826 41.552 51.7066 42 52.9386 42H66.1546C67.3866 42 67.6106 41.664 67.6106 40.544C67.6106 39.704 67.0506 39.088 66.4906 38.808C63.9146 37.52 63.6906 36.792 63.6906 35.28L63.7466 19.04H69.4586C70.5786 19.04 71.0266 18.592 71.0266 16.632C71.0266 14.728 70.5786 14.336 69.3466 14.392L63.6346 14.616C62.9066 10.696 63.5226 7.11203 65.9866 6.72003C69.4586 6.21603 71.5866 10.92 74.4426 10.976C76.9066 11.032 77.9706 9.46403 77.9706 7.39203C77.9706 4.25603 73.7146 2.24003 68.3946 2.24003Z" fill="white"/>
<path d="M92.3456 36.68C91.8976 36.064 91.3936 35.672 90.6656 35.896C90.1056 36.064 89.0976 36.512 87.9216 36.512C84.3936 36.512 84.1136 34.552 84.1136 29.232V19.04H89.4336C90.5536 19.04 91.0016 18.592 91.0016 16.632C91.0016 14.728 90.5536 14.504 89.3216 14.56L84.1136 14.784C84.1136 14.224 84.1136 12.376 84.2816 11.48C84.3936 10.64 84.4496 10.08 84.4496 9.80003C84.4496 8.84803 83.7776 8.40003 82.3776 8.40003C80.6976 8.40003 80.6416 9.01603 80.2496 9.91203C78.6816 13.44 75.7696 14.84 72.5776 15.12C70.9536 15.288 70.6736 15.736 70.6736 17.024C70.6736 18.312 71.1776 18.984 72.1856 18.984H74.8736C74.7056 22.792 74.7056 27.328 74.7056 32.704C74.7056 39.76 76.6656 42.56 82.8256 42.56C86.0736 42.56 89.3216 41.272 91.5056 39.424C92.6256 38.472 93.0176 37.52 92.3456 36.68Z" fill="white"/>
<path d="M87.9032 55.048C79.6712 55.048 77.7672 52.64 77.7672 50.176C77.7672 47.768 79.5032 46.2 82.1912 46.312C83.9272 46.368 85.7192 47.208 87.1752 47.936C89.2472 48.888 92.2712 50.232 95.9672 49.672C99.7752 49.056 105.767 45.92 102.631 38.752L95.4072 22.288C94.7912 20.888 94.2872 20.216 92.7752 19.6C92.2152 19.376 91.7112 18.928 91.7112 18.144C91.7112 17.08 92.4952 16.632 93.7832 16.184L96.6952 15.12C100.895 13.608 102.631 15.904 104.983 21.112L112.039 36.064C113.607 33.824 115.175 29.568 115.175 26.544C115.175 23.24 110.975 21.56 110.919 18.144C110.863 15.68 112.767 14.56 114.279 14.56C117.975 14.56 119.879 18.48 119.879 23.8C119.879 33.264 114.559 42 108.399 47.656C102.911 52.64 97.0872 55.048 87.9032 55.048Z" fill="white"/>
<path d="M171.18 8.68003C171.18 6.88803 169.556 5.60003 167.82 5.60003C164.236 5.60003 162.668 10.024 159.532 11.984C156.732 13.72 153.092 14.56 146.204 14.56C138.7 14.56 133.38 19.264 133.38 25.536C133.38 29.68 135.396 33.04 138.924 35C136.18 36.848 133.772 39.424 133.772 42.672C133.772 46.704 136.012 48.776 140.436 48.944C144.468 49.112 147.66 48.216 150.572 48.216C152.588 48.216 152.7 49.616 151.86 51.744C151.58 52.472 151.524 52.92 152.084 53.48C152.644 53.984 153.036 53.928 153.876 53.648C156.508 52.808 160.316 50.624 160.316 45.248C160.316 42.728 159.028 39.704 153.092 39.704C150.628 39.76 147.716 40.32 144.02 40.32C142.228 40.32 141.612 39.704 141.612 38.696C141.612 37.856 142.116 37.128 142.844 36.456C144.02 36.736 145.308 36.848 146.708 36.848C154.1 36.848 159.364 32.2 159.364 25.648C159.364 22.736 157.908 19.768 155.388 17.64C166.196 16.464 171.18 12.712 171.18 8.68003ZM147.156 32.872C144.86 32.872 142.9 29.064 142.9 24.192C142.9 21 144.076 18.536 145.756 18.536C148.5 18.536 149.9 23.688 149.9 27.552C149.9 30.52 148.78 32.872 147.156 32.872Z" fill="white"/>
<path d="M190.004 31.64C189.164 31.08 188.38 30.968 187.428 31.92C185.356 33.992 182.668 35.728 179.98 35.728C176.844 35.728 174.38 33.88 173.484 29.624L185.524 25.256C187.596 24.528 188.38 23.912 187.932 22.12C186.98 18.424 182.892 14.56 176.564 14.56C168.892 14.56 163.068 20.664 163.068 28.952C163.068 36.4 168.612 42.56 177.18 42.56C184.124 42.56 187.988 37.968 190.116 34.384C190.9 33.152 191.012 32.368 190.004 31.64ZM177.012 24.36L172.476 25.872C172.084 23.744 172.532 18.76 176.228 18.76C177.964 18.76 179.14 19.824 179.7 20.944C180.484 22.512 180.484 23.184 177.012 24.36Z" fill="white"/>
<path d="M223.343 38.696C221.831 37.52 221.607 36.792 221.607 35.28L221.719 25.928C221.831 18.256 219.647 14.56 213.431 14.56C210.127 14.56 206.263 16.856 204.639 18.144V16.464C204.639 14.896 204.079 14.112 202.343 14.672L194.391 17.36C193.047 17.808 192.319 18.256 192.319 19.32C192.319 20.104 192.879 20.552 193.383 20.944C194.391 21.728 195.119 22.512 195.119 24.192V35.28C195.119 36.288 194.895 37.52 193.383 38.696C192.879 39.088 192.319 39.704 192.319 40.488C192.319 41.552 192.543 42 193.775 42H205.871C207.103 42 207.327 41.664 207.327 40.544C207.327 39.704 206.767 39.088 206.263 38.696C204.751 37.52 204.527 36.792 204.527 35.28L204.583 24.08V22.736C206.039 21.672 207.551 21.056 209.007 21.056C211.751 21.056 212.367 23.632 212.311 26.88L212.199 35.28C212.199 36.288 211.975 37.52 210.463 38.696C209.959 39.088 209.399 39.704 209.399 40.488C209.399 41.552 209.623 42 210.855 42H222.951C224.183 42 224.407 41.664 224.407 40.544C224.407 39.704 223.847 39.088 223.343 38.696Z" fill="white"/>
<path d="M251.775 31.64C250.935 31.08 250.151 30.968 249.199 31.92C247.127 33.992 244.439 35.728 241.751 35.728C238.615 35.728 236.151 33.88 235.255 29.624L247.295 25.256C249.367 24.528 250.151 23.912 249.703 22.12C248.751 18.424 244.663 14.56 238.335 14.56C230.663 14.56 224.839 20.664 224.839 28.952C224.839 36.4 230.383 42.56 238.951 42.56C245.895 42.56 249.759 37.968 251.887 34.384C252.671 33.152 252.783 32.368 251.775 31.64ZM238.783 24.36L234.247 25.872C233.855 23.744 234.303 18.76 237.999 18.76C239.735 18.76 240.911 19.824 241.471 20.944C242.255 22.512 242.255 23.184 238.783 24.36Z" fill="white"/>
<path d="M272.906 14.56C270.162 14.56 267.754 15.848 265.85 18.592V16.464C265.85 14.896 265.29 14.112 263.554 14.672L255.602 17.36C254.258 17.808 253.53 18.256 253.53 19.32C253.53 20.104 254.09 20.552 254.594 20.944C255.602 21.728 256.33 22.512 256.33 24.192V35.28C256.33 36.288 256.106 37.52 254.594 38.696C254.09 39.088 253.53 39.704 253.53 40.488C253.53 41.552 253.754 42 254.986 42H267.082C268.314 42 268.538 41.664 268.538 40.544C268.538 39.704 267.978 39.088 267.474 38.696C265.962 37.52 265.738 36.792 265.738 35.28L265.794 24.08V23.464C266.634 22.344 267.698 21.112 269.21 21.112C271.002 21.112 271.786 22.624 274.138 22.624C276.434 22.624 277.946 20.944 277.946 18.648C277.946 15.96 275.594 14.56 272.906 14.56Z" fill="white"/>
<path d="M306.237 37.912L305.005 37.632C303.941 37.352 303.717 36.176 303.717 35.056V24.752C303.717 18.76 300.805 14.728 292.293 14.728C288.093 14.728 280.869 16.072 280.869 20.552C280.869 22.344 282.325 23.576 284.173 23.576C287.925 23.576 288.765 19.04 291.677 19.04C293.749 19.04 294.589 21.168 294.645 26.096V26.544C293.077 25.872 291.229 25.536 289.101 25.536C281.821 25.536 279.077 30.128 279.077 34.104C279.077 39.2 282.661 42.504 287.981 42.504C290.557 42.504 293.357 41.72 295.429 39.872C296.437 42.168 298.565 42.784 301.701 42.168L305.117 41.496C306.517 41.216 307.133 40.712 307.133 39.536C307.133 38.472 306.853 38.024 306.237 37.912ZM292.125 37.688C290.109 37.688 288.877 35.672 288.877 32.76C288.877 30.688 289.829 29.176 291.453 29.176C293.413 29.176 294.701 31.192 294.701 34.272C294.701 36.176 293.805 37.688 292.125 37.688Z" fill="white"/>
<path d="M326.678 12.656C334.63 12.656 343.814 10.64 343.814 5.76803C343.814 3.69603 342.078 2.18403 340.174 2.18403C335.526 2.18403 333.734 8.45603 329.59 8.45603C327.63 8.45603 324.998 7.44803 321.75 6.21603C321.806 4.87203 321.918 3.36003 321.918 1.45603C321.918 0.504028 321.246 0.0560303 319.846 0.0560303C318.166 0.0560303 317.998 0.672029 317.83 1.28803C316.934 4.76003 314.414 3.69603 312.454 3.30403C309.318 2.57603 305.902 2.07203 302.094 2.07203C293.582 2.07203 284.566 4.03203 284.566 8.90403C284.566 10.976 286.134 12.544 288.038 12.544C293.302 12.544 294.478 6.27203 299.182 6.27203C302.598 6.27203 306.462 8.68003 312.398 10.528C312.286 15.736 312.286 27.888 312.286 32.704C312.286 39.76 314.246 42.56 320.406 42.56C323.654 42.56 326.902 41.272 329.086 39.424C329.814 38.808 330.262 38.136 330.262 37.576C330.262 37.24 330.15 36.96 329.926 36.68C329.59 36.176 329.142 35.84 328.638 35.84C328.526 35.84 328.414 35.84 328.246 35.896C327.686 36.064 326.678 36.512 325.502 36.512C321.974 36.512 321.694 34.552 321.694 29.232V12.432C323.262 12.544 324.886 12.656 326.678 12.656Z" fill="white"/>
<path d="M344.946 42.56C353.29 42.56 358.89 36.456 358.89 28.84C358.89 21 353.458 14.56 344.386 14.56C335.986 14.56 330.386 20.664 330.386 28.224C330.386 36.12 335.93 42.56 344.946 42.56ZM345.562 38.192C341.642 38.136 340.242 31.024 340.354 25.648C340.41 21.448 341.642 18.872 343.994 18.928C347.69 18.984 349.258 25.984 349.146 31.192C349.09 34.664 348.306 38.248 345.562 38.192Z" fill="white"/>
<path d="M379.494 14.56C376.75 14.56 374.342 15.848 372.438 18.592V16.464C372.438 14.896 371.878 14.112 370.142 14.672L362.19 17.36C360.846 17.808 360.118 18.256 360.118 19.32C360.118 20.104 360.678 20.552 361.182 20.944C362.19 21.728 362.918 22.512 362.918 24.192V35.28C362.918 36.288 362.694 37.52 361.182 38.696C360.678 39.088 360.118 39.704 360.118 40.488C360.118 41.552 360.342 42 361.574 42H373.67C374.902 42 375.126 41.664 375.126 40.544C375.126 39.704 374.566 39.088 374.062 38.696C372.55 37.52 372.326 36.792 372.326 35.28L372.382 24.08V23.464C373.222 22.344 374.286 21.112 375.798 21.112C377.59 21.112 378.374 22.624 380.726 22.624C383.022 22.624 384.534 20.944 384.534 18.648C384.534 15.96 382.182 14.56 379.494 14.56Z" fill="white"/>
</svg>
