<svg width="190" height="65" viewBox="0 0 190 65" fill="none" xmlns="http://www.w3.org/2000/svg">
<path d="M31.6368 24.0023C31.304 24.7728 31.2209 25.6258 31.3871 26.5614C31.5537 27.4787 31.7752 28.4601 32.0524 29.5057C32.3664 30.6981 32.6989 31.9915 33.0499 33.3858C33.4195 34.7799 33.7888 36.0733 34.1583 37.2657C34.5462 38.4582 34.925 39.4579 35.2946 40.2649C35.6639 41.0538 36.0149 41.4481 36.3474 41.4481C36.5878 41.4481 36.8464 41.2281 37.1233 40.7878C37.419 40.3475 37.6777 39.8065 37.8993 39.1642C38.1211 38.5223 38.2781 37.8435 38.3705 37.128C38.4811 36.3943 38.4811 35.7431 38.3705 35.1742H38.398C38.1579 34.2938 37.9085 33.4408 37.6499 32.6153C37.3912 31.7715 37.0773 30.7349 36.7077 29.5057C36.5415 28.9555 36.3752 28.4051 36.209 27.8547C36.0612 27.3044 35.895 26.7907 35.7102 26.3138C35.544 25.8185 35.3499 25.3782 35.1283 24.9929C34.9065 24.5894 34.6478 24.2591 34.3524 24.0023H44.0511C43.7186 24.7728 43.6355 25.6258 43.8017 26.5614C43.968 27.4787 44.1898 28.4601 44.4667 29.5057C44.781 30.6981 45.1135 31.9915 45.4645 33.3858C45.8338 34.7799 46.2034 36.0733 46.5729 37.2657C46.9607 38.4582 47.3396 39.4579 47.7089 40.2649C48.0784 41.0538 48.4295 41.4481 48.762 41.4481C49.0021 41.4481 49.2422 41.2649 49.4826 40.898C49.7227 40.531 49.935 40.0541 50.1198 39.4671C50.3046 38.8801 50.4523 38.2105 50.5632 37.4581C50.6924 36.706 50.7573 35.9447 50.7573 35.1742C50.7573 34.0002 50.6278 33.0281 50.3692 32.2575C50.1291 31.487 49.8244 30.854 49.4548 30.3587C49.0852 29.8451 48.6789 29.4416 48.2354 29.1479C47.8105 28.8545 47.4134 28.6161 47.0439 28.4326C46.6743 28.2308 46.3603 28.0565 46.1017 27.9098C45.8616 27.763 45.7414 27.5704 45.7414 27.3319C45.7414 26.8916 45.9354 26.4514 46.3236 26.0111C46.7299 25.5708 47.2472 25.1764 47.8751 24.8278C48.5033 24.4609 49.1961 24.1674 49.9535 23.9473C50.7109 23.7088 51.4501 23.5895 52.1704 23.5895C52.7248 23.5895 53.1864 23.6905 53.556 23.8923C53.9438 24.094 54.2581 24.36 54.4982 24.6903C54.7383 25.0205 54.9138 25.3965 55.0247 25.8185C55.1354 26.2404 55.191 26.6715 55.191 27.1118C55.191 27.7722 55.0523 28.6344 54.7754 29.6984C54.5167 30.7623 54.175 31.9366 53.7501 33.2205C53.3252 34.5047 52.8539 35.8714 52.3366 37.3206C51.8194 38.7515 51.3113 40.1824 50.8126 41.6132C50.6649 42.0352 50.5079 42.3564 50.3414 42.5764C50.1751 42.7968 49.9999 42.9618 49.8151 43.0717C49.6303 43.1635 49.4363 43.2187 49.2329 43.2368C49.0484 43.2552 48.8544 43.2644 48.6511 43.2644H42.5823C42.1575 43.2644 41.7789 43.1451 41.4464 42.9066C41.1322 42.6498 40.846 42.3196 40.5873 41.9161C40.3287 41.5126 40.0976 41.0446 39.8945 40.5125C39.7098 39.9808 39.5342 39.4395 39.368 38.8893C39.2017 39.3477 39.0355 39.8065 38.8692 40.2649C38.703 40.7053 38.546 41.1548 38.398 41.6132C38.2688 42.0352 38.1118 42.3564 37.9271 42.5764C37.7608 42.7968 37.5853 42.9618 37.4005 43.0717C37.2157 43.1635 37.022 43.2187 36.8186 43.2368C36.6338 43.2552 36.4398 43.2644 36.2368 43.2644H30.1681C29.5952 43.2644 29.1057 43.0533 28.6993 42.6314C28.3114 42.2095 27.9696 41.6777 27.674 41.0354C27.3969 40.3935 27.1567 39.6871 26.9535 38.9166C26.7503 38.1461 26.5563 37.4124 26.3716 36.7152C26.2053 36.0733 26.0483 35.4863 25.9005 34.9542C25.7527 34.4037 25.5957 33.8627 25.4294 33.3306C25.2816 32.7804 25.1154 32.2023 24.9306 31.5972C24.7459 30.9918 24.5335 30.2946 24.2933 29.5057C24.127 28.9555 23.9608 28.4051 23.7945 27.8547C23.6467 27.3044 23.4804 26.7907 23.2957 26.3138C23.1294 25.8185 22.9355 25.3782 22.7138 24.9929C22.4921 24.5894 22.2334 24.2591 21.9379 24.0023H31.6368Z" fill="#30BE77"/>
<path d="M57.009 26.5889C57.2861 26.4789 57.7571 26.2587 58.4221 25.9285C59.0874 25.5983 59.8077 25.2681 60.5836 24.9379C61.3596 24.5893 62.1077 24.2775 62.8283 24.0023C63.5672 23.7271 64.1398 23.5895 64.5464 23.5895C64.9528 23.5895 65.1929 23.6996 65.2667 23.9198C65.3406 24.1399 65.3777 24.3875 65.3777 24.6627V40.0173C65.3777 40.8062 65.4422 41.4573 65.5717 41.971C65.7194 42.4663 65.9781 42.8974 66.3476 43.2644H57.0643C57.4339 42.8974 57.6832 42.4663 57.8124 41.971C57.9604 41.4573 58.0343 40.8062 58.0343 40.0173V29.4507C58.0343 29.359 58.0343 29.2215 58.0343 29.038C58.0343 28.8361 58.0065 28.6252 57.9511 28.4051C57.9141 28.1849 57.8309 27.9739 57.7018 27.7722C57.5723 27.5704 57.3785 27.4236 57.1199 27.3319C57.0828 27.3135 56.9997 27.286 56.8705 27.2493C56.7596 27.2126 56.704 27.1117 56.704 26.9467C56.704 26.7999 56.7411 26.7082 56.8149 26.6715C56.9073 26.6348 56.9719 26.6073 57.009 26.5889ZM57.5908 18.1411C57.5908 16.9304 57.9604 15.9581 58.6993 15.2243C59.4381 14.4905 60.4174 14.1236 61.6367 14.1236C62.8558 14.1236 63.8351 14.4905 64.5739 15.2243C65.3131 15.9581 65.6824 16.9304 65.6824 18.1411C65.6824 19.3519 65.3131 20.3242 64.5739 21.0579C63.8351 21.7918 62.8558 22.1586 61.6367 22.1586C60.4174 22.1586 59.4381 21.7918 58.6993 21.0579C57.9604 20.3242 57.5908 19.3519 57.5908 18.1411Z" fill="#30BE77"/>
<path d="M67.7202 40.5401C67.7202 39.5496 67.9974 38.6416 68.5515 37.8159C69.1244 36.972 69.8264 36.2015 70.6577 35.5047C71.4889 34.8075 72.394 34.1745 73.3733 33.6059C74.3708 33.0188 75.2855 32.5052 76.1167 32.0648C76.948 31.6061 77.6408 31.2118 78.1951 30.8816C78.7677 30.5514 79.0539 30.267 79.0539 30.0286C79.0539 29.7717 78.9247 29.625 78.6661 29.5882C78.4074 29.5333 78.1488 29.5057 77.8901 29.5057H71.5721C70.9809 29.5057 70.5189 29.5517 70.1864 29.6434C69.8725 29.7168 69.6138 29.7993 69.4105 29.8911C69.226 29.9828 69.0687 30.0746 68.9396 30.166C68.8101 30.2397 68.6531 30.2762 68.4683 30.2762C68.2653 30.2762 68.1083 30.2028 67.9974 30.0562C67.905 29.8911 67.859 29.7076 67.859 29.5057V24.0023H83.3214C83.4508 24.0023 83.6171 24.0023 83.8204 24.0023C84.042 23.984 84.2453 24.0023 84.4301 24.0573C84.6331 24.094 84.8086 24.1674 84.9563 24.2775C85.1043 24.3875 85.1782 24.5618 85.1782 24.8003C85.1782 25.369 84.9563 25.9744 84.5132 26.6164C84.0698 27.2402 83.5061 27.8822 82.8226 28.5426C82.1576 29.2031 81.4373 29.8819 80.6614 30.579C79.8854 31.2578 79.1555 31.9366 78.472 32.6153C77.807 33.2757 77.2529 33.9268 76.8095 34.5691C76.3661 35.211 76.1445 35.8256 76.1445 36.4126C76.1445 37.2565 76.5323 37.6784 77.3083 37.6784H81.1876C81.742 37.6784 82.1854 37.6051 82.5179 37.4581C82.8689 37.3114 83.1551 37.1463 83.377 36.9628C83.5985 36.7793 83.7741 36.6143 83.9035 36.4676C84.0327 36.3209 84.1714 36.2476 84.3191 36.2476C84.4483 36.2476 84.5315 36.3117 84.5685 36.44C84.6053 36.5501 84.6238 36.7794 84.6238 37.1279C84.6238 37.3667 84.6238 37.6968 84.6238 38.1188C84.6238 38.5407 84.6146 38.9718 84.5963 39.4118C84.5963 39.8338 84.5963 40.2284 84.5963 40.5951C84.5963 40.9437 84.5963 41.1732 84.5963 41.283C84.5963 41.7234 84.5963 42.072 84.5963 42.3288C84.5963 42.5856 84.5685 42.7875 84.5132 42.9342C84.4761 43.0625 84.393 43.1542 84.2635 43.2095C84.1344 43.246 83.9403 43.2644 83.6817 43.2644H69.2168C68.9025 43.2644 68.6439 43.1818 68.4408 43.0168C68.256 42.8333 68.1083 42.6132 67.9974 42.3564C67.8865 42.0996 67.8126 41.8059 67.7758 41.4757C67.7388 41.1456 67.7202 40.8338 67.7202 40.5401Z" fill="#30BE77"/>
<path d="M97.5968 29.093C98.0035 29.0012 98.2711 28.8453 98.4005 28.6252C98.5297 28.3867 98.5946 28.1391 98.5946 27.8822C98.5946 27.5704 98.5668 27.2585 98.5115 26.9467C98.4559 26.6164 98.336 26.3138 98.1512 26.0386C97.9849 25.7634 97.7448 25.5433 97.4306 25.3782C97.1166 25.1947 96.701 25.103 96.1837 25.103C95.3154 25.1214 94.5394 25.424 93.8559 26.0111C93.1724 26.5981 92.5534 27.2494 91.9993 27.9648C91.4635 28.6619 90.9648 29.3041 90.5028 29.8911C90.0411 30.4781 89.5977 30.7715 89.1728 30.7715C88.9512 30.7715 88.7479 30.6889 88.5631 30.5238C88.3969 30.3403 88.3138 30.1295 88.3138 29.8911V28.3776C88.3138 27.9006 88.3138 27.4328 88.3138 26.9742C88.3138 26.5155 88.4985 26.1211 88.8681 25.7909C89.8285 24.9104 90.9833 24.3233 92.3318 24.0298C93.6989 23.7363 95.1213 23.5895 96.5993 23.5895C98.188 23.5895 99.5643 23.8372 100.728 24.3325C101.911 24.8278 102.89 25.4699 103.666 26.2587C104.441 27.0292 105.014 27.9098 105.384 28.9003C105.772 29.8727 105.966 30.854 105.966 31.8448V40.0173C105.966 40.8062 106.03 41.4574 106.16 41.971C106.307 42.4663 106.566 42.8974 106.935 43.2644H100.146C99.3702 43.2644 98.89 42.8701 98.7052 42.0812C98.6499 41.8428 98.5668 41.6224 98.4559 41.4208C98.3452 41.2189 98.188 41.118 97.9849 41.118C97.6892 41.118 97.403 41.2557 97.1259 41.5307C96.8487 41.7875 96.4977 42.0812 96.0728 42.4114C95.6479 42.7231 95.1213 43.0076 94.4934 43.2644C93.8652 43.5397 93.0522 43.6771 92.0547 43.6771C91.3897 43.6771 90.7522 43.5581 90.1428 43.3193C89.5514 43.0809 89.0251 42.7507 88.5631 42.3288C88.1197 41.8885 87.7687 41.384 87.51 40.8154C87.2514 40.2468 87.1222 39.6322 87.1222 38.9718C87.1222 37.5041 87.4176 36.22 88.0091 35.1193C88.6184 34.0002 89.4129 33.0465 90.3922 32.2575C91.3897 31.4502 92.5166 30.7899 93.7728 30.2762C95.0289 29.7625 96.3036 29.3682 97.5968 29.093ZM93.745 36.3851C93.745 36.8622 93.782 37.3299 93.8559 37.7886C93.9483 38.247 94.096 38.6598 94.2993 39.0268C94.5027 39.3753 94.7703 39.6598 95.1028 39.8798C95.4356 40.0817 95.8605 40.1824 96.3777 40.1824C97.1351 40.1824 97.6985 39.889 98.068 39.302C98.4373 38.6966 98.6221 37.9445 98.6221 37.0454C98.6221 36.1834 98.6129 35.4402 98.5946 34.8167C98.5946 34.1745 98.5946 33.4316 98.5946 32.5877C98.5946 31.9639 98.5205 31.5236 98.3727 31.2667C98.225 31.0102 97.9664 30.8816 97.5968 30.8816C97.1534 30.8816 96.701 31.0102 96.239 31.2667C95.7773 31.5236 95.3614 31.8906 94.9921 32.3677C94.6226 32.8446 94.3179 33.4224 94.0775 34.1011C93.8559 34.7799 93.745 35.5412 93.745 36.3851Z" fill="#30BE77"/>
<path d="M108.186 43.2644C108.555 42.8974 108.805 42.4663 108.934 41.971C109.082 41.4574 109.156 40.8062 109.156 40.0173V27.2494C109.156 26.4605 109.082 25.8185 108.934 25.3231C108.805 24.8095 108.555 24.3692 108.186 24.0023H114.975C115.566 24.0023 115.963 24.2133 116.167 24.6352C116.388 25.0388 116.499 25.5892 116.499 26.2862V26.754C116.499 27.0842 116.518 27.2769 116.554 27.3319C116.591 27.3869 116.638 27.4144 116.693 27.4144C116.933 27.4144 117.173 27.2218 117.413 26.8366C117.672 26.433 118.005 25.9927 118.411 25.5158C118.836 25.0205 119.381 24.5802 120.046 24.1949C120.711 23.7914 121.589 23.5895 122.679 23.5895C123.048 23.5895 123.436 23.6262 123.842 23.6996C124.249 23.773 124.618 23.8831 124.951 24.0298C125.302 24.1582 125.588 24.3234 125.81 24.5251C126.032 24.7269 126.142 24.9654 126.142 25.2406C126.142 25.314 126.096 25.4607 126.004 25.6809C125.912 25.8827 125.791 26.1303 125.644 26.4238C125.514 26.699 125.357 27.0109 125.173 27.3594C124.988 27.6896 124.812 28.029 124.646 28.3776C124.461 28.7628 124.277 29.139 124.092 29.5057C123.926 29.8543 123.759 30.166 123.593 30.4413C123.427 30.7165 123.27 30.9366 123.122 31.1016C122.993 31.2667 122.863 31.3496 122.734 31.3496C122.439 31.3496 122.207 31.221 122.041 30.9642C121.893 30.7073 121.718 30.4321 121.515 30.1387C121.312 29.8267 121.034 29.5517 120.683 29.3133C120.332 29.0564 119.824 28.9279 119.159 28.9279C118.587 28.9279 118.125 29.0472 117.774 29.2857C117.423 29.5057 117.146 29.7993 116.942 30.166C116.758 30.5146 116.638 30.9 116.582 31.322C116.527 31.7439 116.499 32.1474 116.499 32.5328V40.0173C116.499 40.8062 116.564 41.4574 116.693 41.971C116.841 42.4663 117.099 42.8974 117.469 43.2644H108.186Z" fill="#30BE77"/>
<path d="M133.837 23.5895C134.612 23.5895 135.259 23.7088 135.776 23.9473C136.312 24.1674 136.755 24.4151 137.106 24.6902C137.458 24.947 137.744 25.1947 137.966 25.4332C138.187 25.6533 138.363 25.7634 138.492 25.7634C138.547 25.7634 138.631 25.7359 138.741 25.6809C138.871 25.6075 138.935 25.3965 138.935 25.0479V21.1955C138.935 21.1038 138.935 20.9662 138.935 20.7828C138.935 20.581 138.898 20.37 138.825 20.1499C138.769 19.9297 138.658 19.7188 138.492 19.517C138.326 19.3152 138.076 19.1684 137.744 19.0767C137.707 19.0584 137.624 19.0308 137.494 18.9942C137.384 18.9575 137.328 18.8566 137.328 18.6915C137.328 18.5447 137.365 18.453 137.439 18.4163C137.531 18.3796 137.596 18.3521 137.633 18.3337C137.91 18.2053 138.39 17.976 139.074 17.6458C139.776 17.3156 140.524 16.9854 141.318 16.6552C142.131 16.3066 142.917 16.0039 143.674 15.7471C144.45 15.4719 145.041 15.3344 145.447 15.3344C145.854 15.3344 146.094 15.4444 146.168 15.6646C146.242 15.8847 146.279 16.1324 146.279 16.4075V40.0173C146.279 40.8062 146.344 41.4573 146.473 41.971C146.62 42.4663 146.879 42.8974 147.249 43.2644H140.459C139.868 43.2644 139.462 43.0625 139.24 42.659C139.037 42.2555 138.935 41.705 138.935 41.0081V40.7328C138.935 40.5309 138.871 40.4668 138.741 40.5401C138.631 40.5951 138.529 40.696 138.437 40.843C137.679 42.017 136.903 42.7875 136.109 43.1542C135.315 43.5028 134.557 43.6771 133.837 43.6771C132.599 43.6771 131.49 43.4295 130.511 42.9342C129.532 42.4205 128.71 41.7326 128.045 40.8703C127.38 39.9899 126.872 38.9626 126.521 37.7886C126.17 36.6143 125.994 35.3577 125.994 34.0186C125.994 32.7712 126.142 31.5328 126.438 30.3038C126.752 29.0564 127.223 27.9373 127.851 26.9467C128.498 25.956 129.31 25.1489 130.29 24.5251C131.287 23.9014 132.469 23.5895 133.837 23.5895ZM136.497 40.2376C137.051 40.2376 137.485 40.0817 137.799 39.7696C138.132 39.4579 138.381 39.0817 138.547 38.6416C138.714 38.1829 138.815 37.706 138.852 37.2105C138.908 36.7152 138.935 36.2749 138.935 35.8898V30.5238C138.935 30.1752 138.908 29.7717 138.852 29.3133C138.815 28.8361 138.723 28.3959 138.575 27.9923C138.446 27.5704 138.242 27.2126 137.966 26.9191C137.707 26.6256 137.365 26.4789 136.94 26.4789C136.164 26.4789 135.536 26.6898 135.056 27.1118C134.594 27.5337 134.234 28.0748 133.975 28.7353C133.716 29.3958 133.541 30.1295 133.449 30.9365C133.356 31.7255 133.31 32.496 133.31 33.2481C133.31 34.037 133.329 34.8532 133.366 35.6971C133.421 36.5228 133.55 37.2749 133.753 37.9537C133.957 38.614 134.271 39.1642 134.696 39.6045C135.12 40.0265 135.721 40.2376 136.497 40.2376Z" fill="#30BE77"/>
<path d="M157.553 23.5895C158.773 23.5895 159.918 23.6905 160.99 23.8923C162.08 24.0757 163.022 24.3233 163.816 24.6352C164.629 24.9471 165.266 25.3048 165.728 25.7084C166.209 26.0936 166.449 26.4881 166.449 26.8916C166.449 27.3503 166.356 27.8089 166.171 28.2675C166.005 28.7078 165.793 29.1022 165.534 29.4508C165.276 29.7993 164.998 30.0835 164.703 30.3038C164.407 30.5238 164.13 30.634 163.871 30.634C163.262 30.634 162.671 30.5054 162.098 30.2489C161.544 29.9736 160.999 29.6343 160.463 29.2307C159.927 28.8269 159.401 28.3959 158.884 27.9373C158.366 27.4603 157.849 27.02 157.332 26.6164C156.815 26.2129 156.279 25.8827 155.725 25.6258C155.189 25.3507 154.634 25.2131 154.062 25.2131C153.822 25.2131 153.572 25.2498 153.314 25.3231C153.055 25.3782 152.815 25.4883 152.593 25.6533C152.372 25.8001 152.187 25.9927 152.039 26.2312C151.91 26.4697 151.845 26.7632 151.845 27.1118C151.845 27.442 151.956 27.7355 152.177 27.9923C152.399 28.2308 152.695 28.4418 153.064 28.6252C153.434 28.7904 153.877 28.9371 154.394 29.0654C154.912 29.1939 155.457 29.3133 156.029 29.4231C157.249 29.6435 158.477 29.9184 159.715 30.2489C160.953 30.5606 162.061 31.001 163.04 31.5696C164.038 32.1198 164.841 32.8354 165.451 33.716C166.079 34.5964 166.393 35.6971 166.393 37.0181C166.393 38.2839 166.107 39.3477 165.534 40.21C164.962 41.0538 164.25 41.7326 163.401 42.2463C162.569 42.7599 161.664 43.1269 160.685 43.347C159.724 43.567 158.856 43.6771 158.08 43.6771C157.138 43.6771 156.122 43.613 155.032 43.4844C153.942 43.3562 152.926 43.1819 151.984 42.9618C151.06 42.7415 150.293 42.4847 149.683 42.1913C149.074 41.8793 148.769 41.5491 148.769 41.2005C148.769 40.9072 148.852 40.476 149.018 39.9074C149.185 39.3204 149.397 38.7423 149.656 38.1737C149.933 37.6051 150.229 37.1098 150.542 36.6879C150.857 36.266 151.152 36.0549 151.429 36.0549C151.854 36.0549 152.344 36.2476 152.898 36.6327C153.471 36.9997 154.145 37.4124 154.921 37.8711C155.697 38.3296 156.584 38.7515 157.581 39.1369C158.579 39.5036 159.715 39.6871 160.99 39.6871C161.47 39.6871 161.941 39.623 162.403 39.4944C162.865 39.3661 163.28 39.1918 163.65 38.9718C164.019 38.7331 164.315 38.4581 164.536 38.1461C164.777 37.8343 164.897 37.5041 164.897 37.1556C164.897 36.8254 164.795 36.6054 164.592 36.4952C164.407 36.3666 164.13 36.3025 163.761 36.3025C163.244 36.3025 162.578 36.3666 161.766 36.4952C160.971 36.6054 160.047 36.6603 158.994 36.6603C157.868 36.6603 156.694 36.5409 155.475 36.3025C154.256 36.0641 153.138 35.6698 152.122 35.1193C151.106 34.5507 150.266 33.8078 149.6 32.8903C148.954 31.9731 148.631 30.8448 148.631 29.5057C148.631 28.35 148.899 27.3961 149.434 26.644C149.97 25.8918 150.663 25.2864 151.512 24.8278C152.381 24.3692 153.342 24.0482 154.394 23.8647C155.447 23.6813 156.501 23.5895 157.553 23.5895Z" fill="#30BE77"/>
<path d="M10.3516 1.86424C10.5193 1.32284 11.2911 1.32284 11.4589 1.86424L13.3898 8.09565C13.4413 8.26186 13.5658 8.39597 13.7284 8.46057L18.5416 10.3725C19.027 10.5653 19.027 11.2478 18.5416 11.4406L13.7284 13.3526C13.5658 13.4172 13.4413 13.5513 13.3898 13.7175L11.4589 19.9489C11.2911 20.4903 10.5193 20.4903 10.3516 19.9489L8.42062 13.7175C8.36912 13.5513 8.2447 13.4172 8.08212 13.3526L3.2689 11.4406C2.78341 11.2478 2.78341 10.5653 3.2689 10.3725L8.0821 8.46057C8.2447 8.39597 8.36912 8.26186 8.42062 8.09565L10.3516 1.86424Z" fill="#30BE77"/>
<path d="M178.541 45.051C178.709 44.5098 179.481 44.5098 179.649 45.051L181.58 51.2824C181.631 51.4486 181.755 51.583 181.918 51.6474L186.731 53.5594C187.217 53.7521 187.217 54.4346 186.731 54.6276L181.918 56.5394C181.755 56.6041 181.631 56.7381 181.58 56.9043L179.649 63.1357C179.481 63.6773 178.709 63.6773 178.541 63.1357L176.61 56.9043C176.559 56.7381 176.434 56.6041 176.272 56.5394L171.459 54.6276C170.973 54.4346 170.973 53.7521 171.459 53.5594L176.272 51.6474C176.434 51.583 176.559 51.4486 176.61 51.2824L178.541 45.051Z" fill="#30BE77"/>
<path d="M154.334 8.10342C156.247 8.10342 157.798 6.56344 157.798 4.66377C157.798 2.7641 156.247 1.22412 154.334 1.22412C152.421 1.22412 150.87 2.7641 150.87 4.66377C150.87 6.56344 152.421 8.10342 154.334 8.10342Z" fill="#30BE77"/>
<path d="M33.869 63.1378C35.782 63.1378 37.3328 61.5979 37.3328 59.6982C37.3328 57.7985 35.782 56.2585 33.869 56.2585C31.956 56.2585 30.4052 57.7985 30.4052 59.6982C30.4052 61.5979 31.956 63.1378 33.869 63.1378Z" fill="#30BE77"/>
</svg>
